<svg version="1.1" xmlns="http://www.w3.org/2000/svg" xmlns:xlink="http://www.w3.org/1999/xlink" width="428.46802" height="243.3711" viewBox="0,0,428.46802,243.3711"><g transform="translate(-8.77051,-50.27374)"><g data-paper-data="{&quot;isPaintingLayer&quot;:true}" fill="#a3504b" fill-rule="nonzero" stroke="none" stroke-width="0.5" stroke-linecap="butt" stroke-linejoin="miter" stroke-miterlimit="10" stroke-dasharray="" stroke-dashoffset="0" style="mix-blend-mode: normal"><path d="M164.91137,194.62495c-1.18694,4.4391 -6.63412,8.07545 -6.35574,13.10256c0.16519,3.07875 2.88147,6.4467 3.42678,9.50779c1.05094,5.92513 -0.22818,11.35821 0.64753,17.44143c0.30218,2.03007 2.19384,4.98754 2.85525,6.99197c1.23939,3.77597 2.39349,16.40373 2.09333,22.08122c-0.6141,11.11517 -13.51845,16.86916 -23.36791,13.11453c-7.05011,-2.68615 -8.85163,-11.2098 -6.07433,-17.64591c0.69556,-1.59659 3.20934,-2.08752 3.5945,-3.77386c0.61271,-2.73397 -0.46409,-5.58146 -0.83047,-8.35885c-0.32677,-2.47984 -2.54022,-4.83254 -2.90864,-7.52932c-0.52786,-3.8969 -0.91739,-7.8176 -1.16662,-11.74219c-0.12406,-2.05782 0.74304,-4.2543 0.45779,-6.3162c-0.90834,-6.41161 -5.1969,-11.14079 -4.15854,-18.18797c0.73657,-5.02745 5.42663,-11.93498 7.12936,-16.94788c0.23229,-0.69638 -0.21473,-1.85787 -0.5743,-2.84717c-2.16661,0.64738 -4.41337,0.58922 -6.6128,1.20971c-1.34852,0.38521 -1.79247,2.18793 -2.92437,3.03398c-3.32202,2.47054 -8.69841,2.77356 -12.72594,2.18888c-2.78385,-0.40677 -6.92685,-0.93978 -10.78984,-2.09351c-1.20016,-0.25098 -2.35667,-0.6779 -3.43207,-1.26689c-3.89443,-1.77366 -6.78027,-4.52182 -6.3446,-8.93652l-0.09899,-0.7941c-0.3658,-3.68187 0.89911,-7.13384 3.20027,-9.66374c0.49212,-0.834 1.16224,-1.54912 1.96256,-2.09429c1.57083,-1.07026 3.39841,-1.70277 5.29477,-1.83245c2.25109,-0.34777 4.55428,-0.08372 6.66825,0.76448c1.1501,0.24751 2.24012,1.10394 3.40643,0.90767c1.76937,-0.29638 3.95526,-3.07611 5.89299,-3.70075c2.75385,-0.9067 5.92921,-1.21213 8.74238,-1.52178c1.88871,-0.20775 4.46534,-2.49369 6.29052,-2.9363c6.51157,-1.62172 12.45492,-0.06167 19.04842,-0.65645c1.49364,-0.13835 3.01008,-0.14832 4.47795,-0.4449c1.24196,-0.24398 1.3974,-2.11853 2.25073,-3.0374c1.78634,-1.94614 6.02408,-3.2917 8.47968,-3.05331c9.33981,0.95127 15.08947,11.28345 11.76543,20.00481c-1.67448,4.38704 -10.27644,8.83929 -15.00197,10.53479c-1.53271,0.55425 -3.0991,0.87066 -4.68033,1.03781c0.81605,4.47123 1.58438,8.8668 0.36252,13.4601z"/><path d="M127.93825,69.90245c2.18386,-0.81832 3.25043,-4.57497 5.33612,-5.88722c7.39352,-4.64448 13.77558,-4.20379 21.78763,-4.50575c3.61851,-0.12964 5.49041,-1.13012 8.87111,1.94223c5.19541,4.69942 6.87867,13.33342 1.54952,18.5977c-3.57287,3.5231 -5.70902,3.77882 -9.84745,4.12032c-0.17402,0.01475 -7.0531,0.17818 -7.10723,0.23793c-1.77508,2.23123 -3.44366,4.11209 -5.85294,5.59312c-0.8761,0.53856 -2.13556,0.67631 -2.62482,1.56194c-2.35687,4.28319 -5.28642,8.61663 -10.63503,9.31122c-6.51959,0.84554 -18.79298,-7.35997 -19.29786,-14.2538c-1.41199,-4.32083 -0.36734,-9.06757 2.72844,-12.39614c3.09578,-3.32857 7.75453,-4.71416 12.16619,-3.61844c0.98106,-0.12049 1.94369,-0.32963 2.9168,-0.69999z"/><path d="M349.03374,54.47369c0.66126,-0.26218 1.36119,-0.41369 2.07169,-0.44846c1.06588,-0.28706 2.18055,-0.42985 3.33328,-0.41916l0.22718,-0.0824c7.31338,-2.93394 14.96453,-3.66451 22.79022,-3.04717c3.51907,0.2776 6.21553,2.33604 9.76712,2.45572c4.26175,0.14561 8.8303,-2.07199 13.29642,-1.71967c4.32656,0.34131 19.35143,5.44872 23.01853,6.90161c1.97496,0.77773 3.21045,2.79112 4.57708,4.41362c0.77974,0.92418 1.42448,3.81383 1.62418,4.84273c0.42041,2.30019 4.03485,4.80218 4.76941,9.22364c1.37989,8.19389 -2.35913,14.90062 -3.00036,22.3934c-0.40321,4.60254 -0.43484,10.59862 0.40676,15.18903c0.19288,0.98823 3.42611,3.10906 3.97503,4.79746c1.1185,3.75009 1.54664,7.67213 1.26361,11.57522c-0.46949,5.95151 -5.12452,9.64687 -6.6282,14.97512c-1.23643,4.67955 -1.60671,9.54578 -1.09258,14.35855c0.9895,7.80198 0.62692,15.95873 0.22653,23.83163c-0.30134,5.85443 2.65883,8.76624 -1.0889,14.43909c-1.43462,2.16388 -11.29105,10.88576 -11.61267,11.02088c-9.92703,4.02177 -18.3519,-5.14918 -17.62367,-14.3805c0.26581,-3.36953 2.4243,-8.606 5.22782,-10.70202c2.14297,-1.60645 0.57263,-5.35154 0.62389,-8.03582c0.11954,-5.83868 -0.60332,-11.93441 -0.7414,-17.81348c-0.17567,-7.05567 0.4126,-14.13132 2.29737,-20.98432c0.4666,-1.71863 4.48741,-7.80126 4.28433,-8.27871c-0.7643,-1.75555 -2.65116,-3.26862 -3.38084,-5.08161c-2.167,-5.33695 -0.8183,-13.78706 -1.61487,-19.83844c-0.89053,-6.6406 3.113,-12.12273 2.53887,-18.57787c-0.0811,-0.8791 -1.80638,-2.6603 -2.02156,-3.62019c-0.16794,-0.79567 0.50044,-1.76612 0.0324,-2.44503c-0.99043,-1.43232 -3.33888,-1.03578 -4.98983,-1.59736c-5.90333,-1.97036 -8.38605,-0.76186 -14.848,0.15279c-5.36642,0.76033 -10.05574,-3.12047 -14.41899,-2.74244c-6.26101,0.52926 -11.89904,4.09692 -17.25475,4.0857c-5.79749,-0.006 -15.11208,-6.7995 -13.2286,-13.38177l0.0338,-0.80985c0.29098,-3.68854 2.14554,-6.8525 4.85855,-8.94562c0.63263,-0.73015 1.41828,-1.31203 2.30116,-1.70431z"/><path d="M208.30634,223.25209c10.92786,-8.77649 23.11431,3.1748 26.00641,13.39516c0.82343,2.89739 -1.25719,5.9376 -0.97211,8.35679c0.73295,6.18157 5.7818,9.57136 3.52313,16.77744c-2.85852,9.09059 -15.50833,11.35374 -21.49794,4.07099c-1.23006,-1.49728 -1.85457,-4.09647 -2.71982,-5.97834c-1.00339,-2.18139 -2.96082,-3.70379 -4.04683,-6.05274c-1.20503,-2.60121 0.57965,-9.67683 -0.24385,-11.23073c-1.14571,-0.97408 -2.10578,-2.14738 -2.83384,-3.46322c-0.71244,-0.81211 -1.12057,-1.8465 -1.15462,-2.92626l-0.16847,-0.78231c-0.68842,-3.63539 0.26964,-7.17547 2.33735,-9.9079c0.41855,-0.87072 1.02371,-1.63859 1.77248,-2.24906z"/><path d="M33.57782,142.09198c2.47097,2.00363 4.03083,4.91801 4.32755,8.08537c0.18249,1.21029 0.1868,2.44078 0.0128,3.65232c-0.50467,5.50737 -3.00339,11.36902 -3.95172,16.26962c-1.12588,5.87967 4.02008,8.04106 -0.36243,15.14842c-2.39128,3.86391 -9.10862,6.74457 -13.39799,5.42315c-3.66315,-1.12155 -8.4162,-4.57604 -10.31547,-7.58472c-1.57053,-2.47117 -1.12528,-5.82654 -0.81589,-8.73121c0.85345,-7.76693 1.12517,-17.69632 4.2904,-25.14045c0.85309,-3.68628 3.32999,-6.78777 6.73632,-8.43499c3.40633,-1.64722 7.37545,-1.66288 10.79467,-0.0426c0.97881,0.30793 1.90071,0.70165 2.68174,1.3551z"/><path d="M352.49313,239.60464c1.87,0.62 5.85039,3.37992 8.40039,5.91992c1.18,1.17 4.05,6.28961 5.25,10.84961c0.8,3.08 0.93055,8.5189 0.06055,12.8789c-0.19,0.94 -2.04047,5.32078 -4.48047,9.05079c-2.63312,3.63465 -5.68737,6.94378 -9.09961,9.85937c-1.22,0.99 -6.07016,3.56023 -11.16016,4.74023c-5.16,1.19 -8.53078,0.73985 -10.80078,0.08985c-2.4,-0.7 -3.05875,-0.38961 -4.71875,-1.84961c-0.67,-0.6 -2.42969,-3.57031 -2.42969,-3.57031c0,0 -4.7,-2.32016 -6,-3.66016h0.00977c-2.38189,-2.66207 -4.34189,-5.67346 -5.81055,-8.92969c-1.29,-3.26 -1.14922,-6.85898 -1.19922,-7.95898c-0.12,-2.92 0.58,-5.93016 0.75,-6.66016c0.49,-2.01 2.50977,-6.68164 2.50977,-6.68164c0,0 0.91859,-2.84914 3.05859,-5.36914c2.22516,-2.53179 4.7701,-4.76444 7.57031,-6.64062c1.76,-0.87 6.58985,-2.39844 6.58985,-2.39844c0,0 8.30156,-1.46109 12.10156,-1.37109c1.47,0.04 6.23844,0.65117 9.39844,1.70117zM338.92477,263.3234l-1.78125,0.33984l-0.0293,0.01953l-0.40039,0.26172l-0.46094,0.86914l-0.08984,0.23047l-0.19922,1.16016l0.40039,0.25976l1.70899,0.79883l0.35156,0.29102l0.05859,0.01953l1,-0.87891l0.82031,-0.75l0.85938,-1.14062l0.33984,-0.75l0.11133,-0.13086l0.03906,-0.16993l0.30079,-0.60937h-0.13086z"/><path d="M342.47994,123.53435c0.97,0.05 2.3,-1.51 3.44,-1.8c5.27,-1.31 12.95,-2.63 17.64,1.17c6.84,5.54 9.76,17.73 0.1,22.56c-5.5,2.75 -5.81,1.46 -10.4,0.8c-2.58,-0.38 -6.58,2.45 -9.42,2.45c-7.83,0 -18.71,-3.3 -22.12,-11.33c-0.41706,-1.00597 -0.68651,-2.06693 -0.8,-3.15c-0.36535,-2.47455 0.0141,-5.00184 1.09,-7.26c1.52,-3.62 4.48,-6.52 8.56,-6.8c4.14993,-0.90973 8.47825,0.3436 11.5,3.33l0.4,0.04z"/></g></g></svg>