<svg version="1.1" xmlns="http://www.w3.org/2000/svg" xmlns:xlink="http://www.w3.org/1999/xlink" width="191.40859" height="168.14325" viewBox="0,0,191.40859,168.14325"><g transform="translate(-144.29642,-95.9283)"><g data-paper-data="{&quot;isPaintingLayer&quot;:true}" fill="#a3504b" fill-rule="nonzero" stroke="none" stroke-width="0.5" stroke-linecap="butt" stroke-linejoin="miter" stroke-miterlimit="10" stroke-dasharray="" stroke-dashoffset="0" style="mix-blend-mode: normal"><path d="M179.96502,100.69001c2.33,-0.1 4.51,-3.34 6.9,-3.94c8.47,-2.12 14.4,0.28 22.11,2.48c3.48,1 5.57,0.63 7.83,4.6c3.48,6.08 2.4,14.81 -4.3,18.16c-4.49,2.24 -6.6,1.82 -10.64,0.86c-0.17,-0.04 -6.76,-2.02 -6.83,-1.98c-2.38,1.57 -4.55,2.84 -7.3,3.5c-1,0.24 -2.24,-0.02 -2.98,0.67c-3.57,3.34 -7.7,6.55 -13,5.55c-6.46,-1.22 -15.58,-12.83 -13.92,-19.54c-0.00115,-4.54569 2.4655,-8.73368 6.44159,-10.93685c3.97609,-2.20317 8.83481,-2.07418 12.68841,0.33685c0.97,0.19 1.95,0.29 2.99,0.24zM210.51502,181.58001c-1.62,4.3 -7.4,7.38 -7.62,12.41c-0.14,3.08 2.23,6.7 2.47,9.8c0.46,6 -1.35,11.28 -1.08,17.42c0.1,2.05 1.69,5.18 2.15,7.24c0.86,3.88 0.76,16.56 -0.1,22.18c-1.71,11 -15.12,15.45 -24.55,10.74c-6.75,-3.37 -7.7,-12.03 -4.3,-18.16c0.85,-1.52 3.4,-1.76 3.95,-3.4c0.88,-2.66 0.09,-5.6 0,-8.4c-0.08,-2.5 -2.05,-5.06 -2.15,-7.78c-0.14,-3.93 -0.14,-7.87 0,-11.8c0.08,-2.06 1.16,-4.16 1.08,-6.24c-0.27,-6.47 -4.07,-11.6 -2.34,-18.51c1.23,-4.93 6.58,-11.34 8.77,-16.16c0.3,-0.67 -0.03,-1.87 -0.29,-2.89c-2.22,0.43 -4.45,0.15 -6.7,0.55c-1.38,0.25 -2,2 -3.21,2.73c-3.55,2.13 -8.93,1.9 -12.88,0.92c-2.73,-0.68 -6.8,-1.62 -10.53,-3.15c-1.16947,-0.36841 -2.2781,-0.90757 -3.29,-1.6c-3.7,-2.15 -6.3,-5.17 -5.43,-9.52l-0.02,-0.8c0,-3.7 1.6,-7.01 4.14,-9.3c0.57216,-0.78126 1.3097,-1.42662 2.16,-1.89c1.66895,-0.90972 3.55011,-1.35844 5.45,-1.3c2.27444,-0.12351 4.54024,0.36695 6.56,1.42c1.12,0.36 2.12,1.32 3.3,1.24c1.79,-0.12 4.24,-2.67 6.23,-3.1c2.83,-0.63 6.02,-0.62 8.85,-0.65c1.9,-0.02 4.69,-2.04 6.55,-2.3c6.64,-0.97 12.4,1.17 19.02,1.23c1.5,0.01 3.01,0.15 4.5,0c1.26,-0.12 1.6,-1.97 2.54,-2.8c1.97,-1.76 6.32,-2.68 8.74,-2.2c9.2,1.87 13.9,12.72 9.73,21.07c-2.1,4.2 -11.1,7.78 -15.97,9c-1.58,0.4 -3.17,0.56 -4.76,0.57c0.37,4.53 0.7,8.98 -0.97,13.43z"/><path d="M166.31501,191.10001c2.62088,1.8031 4.40511,4.58578 4.95,7.72c0.27711,1.19219 0.37818,2.41853 0.3,3.64c-0.07,5.53 -2.1,11.57 -2.66,16.53c-0.66,5.95 4.64,7.7 0.83,15.13c-2.08,4.04 -8.55,7.44 -12.93,6.46c-3.74,-0.83 -8.75,-3.9 -10.88,-6.75c-1.76,-2.34 -1.58,-5.72 -1.5,-8.64c0.24,-7.81 -0.27,-17.73 2.3,-25.4c0.56055,-3.74195 2.78587,-7.02862 6.05211,-8.93862c3.26624,-1.91 7.22184,-2.23775 10.75789,-0.89138c1,0.23 1.95,0.55 2.78,1.14zM216.68502,184.03001c12.37,-6.59 22.12,7.42 23.06,18c0.27,3 -2.34,5.6 -2.51,8.03c-0.43,6.21 3.9,10.48 0.34,17.14c-4.5,8.4 -17.35,8.27 -21.88,0c-0.93,-1.7 -1.06,-4.37 -1.56,-6.38c-0.58,-2.33 -2.22,-4.19 -2.85,-6.7c-0.7,-2.78 2.37,-9.4 1.85,-11.08c-0.94447,-1.17024 -1.66947,-2.50168 -2.14,-3.93c-0.54889,-0.93048 -0.75745,-2.02275 -0.59,-3.09l-0.02,-0.8c0,-3.7 1.6,-7 4.14,-9.3c0.57325,-0.77764 1.31071,-1.4195 2.16,-1.88zM241.87502,113.81001c0.6386,-0.31337 1.32444,-0.51946 2.03,-0.61c1.04,-0.37 2.14,-0.6 3.29,-0.68l0.22,-0.1c7.06,-3.5 14.63,-4.83 22.48,-4.83c3.53,0 6.38,1.84 9.93,1.68c4.26,-0.19 8.64,-2.76 13.12,-2.76c4.34,0 19.72,3.91 23.49,5.07c2.03,0.62 3.42,2.53 4.91,4.04c0.85,0.86 1.72,3.69 2,4.7c0.6,2.26 4.4,4.47 5.48,8.82c2.02,8.06 -1.18,15.04 -1.23,22.56c-0.04,4.62 0.4,10.6 1.6,15.11c0.27,0.97 3.66,2.83 4.34,4.47c1.40995,3.65052 2.14521,7.52674 2.17,11.44c0,5.97 -4.35,10.02 -5.43,15.45c-0.86459,4.7623 -0.85103,9.64257 0.04,14.4c1.6,7.7 1.88,15.86 2.1,23.74c0.16,5.86 3.34,8.53 0.05,14.48c-1.26,2.27 -10.4,11.74 -10.71,11.9c-9.58,4.79 -18.7,-3.69 -18.7,-12.95c0,-3.38 1.74,-8.77 4.37,-11.08c2.01,-1.77 0.15,-5.38 -0.01,-8.06c-0.34,-5.83 -1.54,-11.85 -2.14,-17.7c-0.73,-7.02 -0.7,-14.12 0.64,-21.1c0.33,-1.75 3.86,-8.13 3.62,-8.59c-0.9,-1.69 -2.9,-3.05 -3.77,-4.8c-2.58,-5.15 -1.9,-13.68 -3.17,-19.65c-1.41,-6.55 2.15,-12.33 1.07,-18.72c-0.15,-0.87 -2.01,-2.51 -2.3,-3.45c-0.23,-0.78 0.36,-1.8 -0.16,-2.44c-1.1,-1.35 -3.41,-0.77 -5.1,-1.2c-6.04,-1.5 -8.42,-0.1 -14.79,1.32c-5.29,1.18 -10.27,-2.32 -14.59,-1.6c-6.2,1.02 -11.54,5.02 -16.88,5.43c-5.78,0.45 -15.6,-5.59 -14.24,-12.3l-0.03,-0.81c0,-3.7 1.6,-7 4.14,-9.3c0.57325,-0.77764 1.31071,-1.4195 2.16,-1.88z"/><path d="M264.24502,153.13001c0.97,0.05 2.3,-1.51 3.44,-1.8c5.27,-1.31 12.95,-2.63 17.64,1.17c6.84,5.54 9.76,17.73 0.1,22.56c-5.5,2.75 -5.81,1.46 -10.4,0.8c-2.58,-0.38 -6.58,2.45 -9.42,2.45c-7.83,0 -18.71,-3.3 -22.12,-11.33c-0.41706,-1.00597 -0.68651,-2.06693 -0.8,-3.15c-0.36535,-2.47455 0.01409,-5.00184 1.09,-7.26c1.52,-3.62 4.48,-6.52 8.56,-6.8c4.14993,-0.90973 8.47825,0.3436 11.5,3.33l0.4,0.04zM248.51502,230.96001c-2.38189,-2.66207 -4.34134,-5.67377 -5.81,-8.93c-1.29,-3.26 -1.15,-6.86 -1.2,-7.96c-0.12,-2.92 0.58,-5.93 0.75,-6.66c0.49,-2.01 2.51,-6.68 2.51,-6.68c0,0 0.92,-2.85 3.06,-5.37c2.22516,-2.53179 4.76979,-4.76381 7.57,-6.64c1.76,-0.87 6.59,-2.4 6.59,-2.4c0,0 8.3,-1.46 12.1,-1.37c1.47,0.04 6.24,0.65 9.4,1.7c1.87,0.62 5.85,3.38 8.4,5.92c1.18,1.17 4.05,6.29 5.25,10.85c0.8,3.08 0.93,8.52 0.06,12.88c-0.19,0.94 -2.04,5.32 -4.48,9.05c-2.63312,3.63466 -5.68776,6.94441 -9.1,9.86c-1.22,0.99 -6.07,3.56 -11.16,4.74c-5.16,1.19 -8.53,0.74 -10.8,0.09c-2.4,-0.7 -3.06,-0.39 -4.72,-1.85c-0.67,-0.6 -2.43,-3.57 -2.43,-3.57c0,0 -4.7,-2.32 -6,-3.66zM272.81502,210.19001l-2.9,0.18l-1.78,0.34l-0.03,0.02l-0.4,0.26l-0.46,0.87l-0.09,0.23l-0.2,1.16l0.4,0.26l1.71,0.8l0.35,0.29l0.06,0.02l1,-0.88l0.82,-0.75l0.86,-1.14l0.34,-0.75l0.11,-0.13l0.04,-0.17l0.3,-0.61z"/></g></g></svg>