<svg version="1.1" xmlns="http://www.w3.org/2000/svg" xmlns:xlink="http://www.w3.org/1999/xlink" width="207.909" height="175.843" viewBox="0,0,207.909,175.843"><g transform="translate(-137.06851,-82.07394)"><g data-paper-data="{&quot;isPaintingLayer&quot;:true}" fill-rule="nonzero" stroke="none" stroke-width="0.5" stroke-linecap="butt" stroke-linejoin="miter" stroke-miterlimit="10" stroke-dasharray="" stroke-dashoffset="0" style="mix-blend-mode: normal"><path d="M203.28711,176.26358c-1.62,4.3 -7.4,7.38 -7.62,12.41c-0.14,3.08 2.23,6.7 2.47,9.8c0.46,6 -1.35,11.28 -1.08,17.42c0.1,2.05 1.69,5.18 2.15,7.24c0.86,3.88 0.76,16.56 -0.1,22.18c-1.71,11 -15.12,15.45 -24.55,10.74c-6.75,-3.37 -7.7,-12.03 -4.3,-18.16c0.85,-1.52 3.4,-1.76 3.95,-3.4c0.88,-2.66 0.09,-5.6 0,-8.4c-0.08,-2.5 -2.05,-5.06 -2.15,-7.78c-0.14,-3.93 -0.14,-7.87 0,-11.8c0.08,-2.06 1.16,-4.16 1.08,-6.24c-0.27,-6.47 -4.07,-11.6 -2.34,-18.51c1.23,-4.93 6.58,-11.34 8.77,-16.16c0.3,-0.67 -0.03,-1.87 -0.29,-2.89c-2.22,0.43 -4.45,0.15 -6.7,0.55c-1.38,0.25 -2,2 -3.21,2.73c-3.55,2.13 -8.93,1.9 -12.88,0.92c-2.73,-0.68 -6.8,-1.62 -10.53,-3.15c-1.16947,-0.36841 -2.2781,-0.90757 -3.29,-1.6c-3.7,-2.15 -6.3,-5.17 -5.43,-9.52l-0.02,-0.8c0,-3.7 1.6,-7.01 4.14,-9.3c0.57216,-0.78126 1.3097,-1.42662 2.16,-1.89c1.66895,-0.90972 3.55011,-1.35844 5.45,-1.3c2.27444,-0.12351 4.54024,0.36695 6.56,1.42c1.12,0.36 2.12,1.32 3.3,1.24c1.79,-0.12 4.24,-2.67 6.23,-3.1c2.83,-0.63 6.02,-0.62 8.85,-0.65c1.9,-0.02 4.69,-2.04 6.55,-2.3c6.64,-0.97 12.4,1.17 19.02,1.23c1.5,0.01 3.01,0.15 4.5,0c1.26,-0.12 1.6,-1.97 2.54,-2.8c1.97,-1.76 6.32,-2.68 8.74,-2.2c9.2,1.87 13.9,12.72 9.73,21.07c-2.1,4.2 -11.1,7.78 -15.97,9c-1.58,0.4 -3.17,0.56 -4.76,0.57c0.37,4.53 0.7,8.98 -0.97,13.43z" fill="#a3504b"/><path d="M173.0976,92.72492c2.18386,-0.81832 3.25043,-4.57497 5.33612,-5.88722c7.39352,-4.64448 13.77558,-4.20379 21.78763,-4.50575c3.61851,-0.12964 5.49041,-1.13012 8.87111,1.94223c5.19541,4.69942 6.87867,13.33342 1.54952,18.5977c-3.57287,3.5231 -5.70902,3.77882 -9.84745,4.12032c-0.17402,0.01475 -7.0531,0.17818 -7.10723,0.23793c-1.77508,2.23123 -3.44366,4.11209 -5.85294,5.59312c-0.8761,0.53856 -2.13556,0.67631 -2.62482,1.56194c-2.35687,4.28319 -5.28642,8.61663 -10.63503,9.31122c-6.51959,0.84554 -18.79298,-7.35997 -19.29786,-14.2538c-1.41199,-4.32083 -0.36734,-9.06757 2.72844,-12.39614c3.09578,-3.32857 7.75453,-4.71416 12.16619,-3.61844c0.98106,-0.12049 1.94369,-0.32963 2.9168,-0.69999z" fill="#a3504b"/><path d="M256.77272,100.60421c0.66126,-0.26218 1.36119,-0.41369 2.07169,-0.44846c1.06588,-0.28706 2.18055,-0.42985 3.33328,-0.41916l0.22718,-0.0824c7.31338,-2.93394 14.96453,-3.66451 22.79022,-3.04717c3.51907,0.2776 6.21553,2.33604 9.76712,2.45572c4.26175,0.14561 8.8303,-2.07199 13.29642,-1.71967c4.32656,0.34131 19.35143,5.44872 23.01853,6.90161c1.97496,0.77773 3.21045,2.79112 4.57708,4.41362c0.77974,0.92418 1.42448,3.81383 1.62418,4.84273c0.42041,2.30019 4.03485,4.80218 4.76941,9.22364c1.37989,8.19389 -2.35913,14.90062 -3.00036,22.3934c-0.40321,4.60254 -0.43484,10.59862 0.40676,15.18903c0.19288,0.98823 3.42611,3.10906 3.97503,4.79746c1.1185,3.75009 1.54664,7.67213 1.26361,11.57522c-0.46949,5.95151 -5.12452,9.64687 -6.6282,14.97512c-1.23643,4.67955 -1.60671,9.54578 -1.09258,14.35855c0.9895,7.80198 0.62692,15.95873 0.22653,23.83163c-0.30134,5.85443 2.65883,8.76624 -1.0889,14.43909c-1.43462,2.16388 -11.29105,10.88576 -11.61267,11.02088c-9.92703,4.02177 -18.3519,-5.14918 -17.62367,-14.3805c0.26581,-3.36953 2.4243,-8.606 5.22782,-10.70202c2.14297,-1.60645 0.57263,-5.35154 0.62389,-8.03582c0.11954,-5.83868 -0.60332,-11.93441 -0.7414,-17.81348c-0.17567,-7.05567 0.4126,-14.13132 2.29737,-20.98432c0.4666,-1.71863 4.48741,-7.80126 4.28433,-8.27871c-0.7643,-1.75555 -2.65116,-3.26862 -3.38084,-5.08161c-2.167,-5.33695 -0.8183,-13.78706 -1.61487,-19.83844c-0.89053,-6.6406 3.113,-12.12273 2.53887,-18.57787c-0.0811,-0.8791 -1.80638,-2.6603 -2.02156,-3.62019c-0.16794,-0.79567 0.50044,-1.76612 0.0324,-2.44503c-0.99043,-1.43232 -3.33888,-1.03578 -4.98983,-1.59736c-5.90333,-1.97036 -8.38605,-0.76186 -14.848,0.15279c-5.36642,0.76033 -10.05574,-3.12047 -14.41899,-2.74244c-6.26101,0.52926 -11.89904,4.09692 -17.25475,4.0857c-5.79749,-0.006 -15.11208,-6.7995 -13.2286,-13.38177l0.0338,-0.80985c0.29098,-3.68854 2.14554,-6.8525 4.85855,-8.94562c0.63263,-0.73015 1.41828,-1.31203 2.30116,-1.70431z" fill="#a3504b"/><path d="M215.45562,188.53469c12.84994,-5.59679 21.46796,9.13659 21.57302,19.75775c0.0332,3.01194 -2.77314,5.39864 -3.13372,7.80774c-0.91703,6.15695 3.06375,10.75424 -1.00898,17.11365c-5.14666,8.02009 -17.94664,6.87995 -21.81224,-1.72069c-0.79343,-1.76787 -0.71305,-4.43983 -1.05343,-6.48292c-0.39497,-2.36839 -1.88361,-4.35161 -2.31427,-6.90338c-0.47921,-2.82644 3.10189,-9.18451 2.71562,-10.90019c-0.84951,-1.24089 -1.46756,-2.62523 -1.8243,-4.08613c-0.47402,-0.97077 -0.59603,-2.07605 -0.34517,-3.12682l0.043,-0.79909c0.29098,-3.68854 2.14554,-6.8525 4.85855,-8.94562c0.63263,-0.73015 1.41828,-1.31203 2.30115,-1.70431z" fill="#a3504b"/><path d="M165.65677,191.136c2.47097,2.00363 4.03083,4.91801 4.32755,8.08537c0.18249,1.21029 0.1868,2.44078 0.0128,3.65232c-0.50467,5.50737 -3.00339,11.36902 -3.95172,16.26962c-1.12588,5.87967 4.02008,8.04106 -0.36243,15.14842c-2.39128,3.86391 -9.10862,6.74457 -13.39799,5.42315c-3.66315,-1.12155 -8.4162,-4.57604 -10.31547,-7.58472c-1.57053,-2.47117 -1.12528,-5.82654 -0.81589,-8.73121c0.85345,-7.76693 1.12517,-17.69632 4.2904,-25.14045c0.85309,-3.68628 3.32999,-6.78777 6.73632,-8.43499c3.40633,-1.64722 7.37545,-1.66288 10.79467,-0.0426c0.97881,0.30793 1.90071,0.70165 2.68174,1.3551z" fill="#a3504b"/><path d="M289.36717,177.93543c1.87,0.62 5.85039,3.37992 8.40039,5.91992c1.18,1.17 4.05,6.28961 5.25,10.84961c0.8,3.08 0.93055,8.5189 0.06055,12.8789c-0.19,0.94 -2.04047,5.32078 -4.48047,9.05079c-2.63312,3.63465 -5.68737,6.94378 -9.09961,9.85937c-1.22,0.99 -6.07016,3.56023 -11.16016,4.74023c-5.16,1.19 -8.53078,0.73985 -10.80078,0.08985c-2.4,-0.7 -3.05875,-0.38961 -4.71875,-1.84961c-0.67,-0.6 -2.42969,-3.57031 -2.42969,-3.57031c0,0 -4.7,-2.32016 -6,-3.66016h0.00977c-2.38189,-2.66207 -4.34189,-5.67346 -5.81055,-8.92969c-1.29,-3.26 -1.14922,-6.85898 -1.19922,-7.95898c-0.12,-2.92 0.58,-5.93016 0.75,-6.66016c0.49,-2.01 2.50977,-6.68164 2.50977,-6.68164c0,0 0.91859,-2.84914 3.05859,-5.36914c2.22516,-2.53179 4.7701,-4.76444 7.57031,-6.64062c1.76,-0.87 6.58985,-2.39844 6.58985,-2.39844c0,0 8.30156,-1.46109 12.10156,-1.37109c1.47,0.04 6.23844,0.65117 9.39844,1.70117zM275.79881,201.65419l-1.78125,0.33984l-0.0293,0.01953l-0.40039,0.26172l-0.46094,0.86914l-0.08984,0.23047l-0.19922,1.16016l0.40039,0.25976l1.70899,0.79883l0.35156,0.29102l0.05859,0.01953l1,-0.87891l0.82031,-0.75l0.85938,-1.14062l0.33984,-0.75l0.11133,-0.13086l0.03906,-0.16993l0.30079,-0.60937h-0.13086z" fill="#a3504b"/><path d="M270.12789,145.87124c0.97,0.05 2.3,-1.51 3.44,-1.8c5.27,-1.31 12.95,-2.63 17.64,1.17c6.84,5.54 9.76,17.73 0.1,22.56c-5.5,2.75 -5.81,1.46 -10.4,0.8c-2.58,-0.38 -6.58,2.45 -9.42,2.45c-7.83,0 -18.71,-3.3 -22.12,-11.33c-0.41706,-1.00597 -0.68651,-2.06693 -0.8,-3.15c-0.36535,-2.47455 0.0141,-5.00184 1.09,-7.26c1.52,-3.62 4.48,-6.52 8.56,-6.8c4.14993,-0.90973 8.47825,0.3436 11.5,3.33l0.4,0.04z" fill="#a3504b"/><path d="M273.94999,164.93883c4.53956,0.11946 7.94933,-1.32954 12.36611,1.16988c8.48803,4.8033 5.31898,17.0532 0,22.5505c-2.14841,2.22044 -5.31344,5.02421 -7.96478,6.82524c-0.32257,0.21912 -5.82364,2.86045 -5.82132,2.87637c0.41659,2.84767 6.4808,12.34593 8.03682,14.30218c0.70248,0.88317 2.97178,0.80271 3.80693,1.51855c2.95686,2.53446 4.26755,5.16068 5.43867,8.79995c0.73978,2.2989 -0.93975,6.12772 -1.48489,8.30827c-0.46924,1.87697 -3.5328,4.52178 -3.95378,4.95671c-2.16705,2.23886 -5.95657,2.19783 -8.83745,1.51775c-7.97327,-1.88223 -13.94833,-7.19406 -19.23202,-13.37525c-1.75449,-2.05251 -2.62809,-5.3933 -5.20194,-6.20959c-0.54501,-0.17285 -0.13456,1.13566 -0.18954,1.70477c-0.12545,1.29862 -0.53867,2.66079 -1.18928,3.81051c-1.90871,3.37293 -4.74546,4.99629 -8.48605,6.00726c-6.03485,1.63104 -15.25583,-4.36978 -18.2448,-9.89193c-0.3677,-0.67933 -0.9947,-4.38425 -1.34321,-4.67534c-0.76804,-0.64151 -1.84663,0.97612 -2.39051,1.81613c-3.22616,4.9827 -5.56895,10.27779 -9.86063,14.46691c-6.8817,6.71724 -19.59341,9.22818 -26.31853,1.02289c-6.09591,-7.4376 2.17142,-18.89217 7.75341,-24.00104c2.19326,-2.00736 4.5164,-3.86803 6.77225,-5.80479c0.39279,-0.33723 1.20701,-0.50055 1.17366,-1.01717c-0.13399,-2.0758 -1.67916,-3.94472 -1.62817,-6.02421c0.06118,-2.49453 0.71512,-5.06005 1.95313,-7.22656c2.46309,-4.31041 5.32031,-3.73248 9.31487,-4.96544c1.35063,-0.41689 1.2724,-2.52999 2.03299,-3.72143c0.18234,-0.28563 1.96424,-2.36095 1.87242,-2.58225c-1.25354,-3.02099 -7.26019,-4.95812 -9.72033,-6.25723c-7.66475,-4.04748 -20.26478,-10.89171 -19.76369,-21.1212c0.05244,-1.07061 0.97789,-1.91404 1.34279,-2.92191c0.3649,-1.00787 0.1939,-2.24827 0.839,-3.10431c9.64349,-12.79679 24.12716,0.56847 34.14036,4.0756c0.27625,0.09676 0.092,-0.58536 0.21297,-0.8519c0.68174,-1.50207 1.35053,-3.01283 2.12678,-4.4683c2.19048,-4.10715 5.77176,-6.95527 10.19541,-8.07873c4.13716,-1.05071 11.98726,2.8968 13.6556,6.90081c0.56763,1.36232 0.68832,2.95833 1.57551,4.13775c0.48437,0.64392 1.47412,-0.65151 2.21855,-0.95986c0.49463,-0.20488 0.88164,-0.62386 1.37725,-0.82635c3.96243,-1.61896 5.15188,-7.77929 10.67843,-8.18367c1.49719,-0.10955 4.35038,-0.3254 5.66238,0.41432c1.31906,0.74371 4.24239,2.0378 5.52427,3.31456c5.82139,5.79816 6.08068,16.1364 1.64273,23.11031c-0.73618,1.15686 -1.95879,1.80493 -2.45274,3.18798z" fill="#ff0000"/><path d="M229.79088,160.6939c1.2281,-1.42201 2.31881,-2.87912 3.71094,-4.29687c5.75488,-5.86084 19.19751,-0.61702 23.01991,5.75363c3.05976,5.09959 1.22905,13.64525 0.65693,19.05041c-0.20192,1.90768 2.52283,2.90744 3.56397,4.51866c0.79363,1.22817 1.16674,7.22119 0.53158,8.53832c-2.82094,5.84975 -6.4071,8.22982 -12.7083,9.79479c-1.37787,0.34221 -3.84758,0.00546 -5.08777,0.64146c-5.26828,2.7017 -6.64743,10.46027 -13.62801,10.84808c-2.49144,0.13841 -5.10525,-0.36896 -7.3371,-1.48489c-2.23185,-1.11592 -4.20604,-2.90254 -5.59017,-4.97875c-1.65285,-2.47928 -1.77613,-10.09488 0.39858,-12.80644c1.36174,-1.69791 5.25369,-4.80939 5.75142,-6.86329c0.08732,-0.36033 -0.61565,-0.43397 -0.8398,-0.7293c-1.42665,-1.87975 -3.2522,-3.57038 -4.09619,-5.77412c-3.70458,-9.67306 -1.70371,-18.48753 8.74458,-21.11528c0.91488,-0.23009 1.85378,-0.76201 2.77468,-0.55737z" fill="#ffa100"/></g></g></svg>