<svg version="1.1" xmlns="http://www.w3.org/2000/svg" xmlns:xlink="http://www.w3.org/1999/xlink" width="408.72745" height="280.31913" viewBox="0,0,408.72745,280.31913"><g transform="translate(-38.98982,-2.70084)"><g data-paper-data="{&quot;isPaintingLayer&quot;:true}" fill-rule="nonzero" stroke="none" stroke-width="0.5" stroke-linecap="butt" stroke-linejoin="miter" stroke-miterlimit="10" stroke-dasharray="" stroke-dashoffset="0" style="mix-blend-mode: normal"><path d="M179.96502,100.69001c2.33,-0.1 4.51,-3.34 6.9,-3.94c8.47,-2.12 14.4,0.28 22.11,2.48c3.48,1 5.57,0.63 7.83,4.6c3.48,6.08 2.4,14.81 -4.3,18.16c-4.49,2.24 -6.6,1.82 -10.64,0.86c-0.17,-0.04 -6.76,-2.02 -6.83,-1.98c-2.38,1.57 -4.55,2.84 -7.3,3.5c-1,0.24 -2.24,-0.02 -2.98,0.67c-3.57,3.34 -7.7,6.55 -13,5.55c-6.46,-1.22 -15.58,-12.83 -13.92,-19.54c-0.00115,-4.54569 2.4655,-8.73368 6.44159,-10.93685c3.97609,-2.20317 8.83481,-2.07418 12.68841,0.33685c0.97,0.19 1.95,0.29 2.99,0.24zM210.51502,181.58001c-1.62,4.3 -7.4,7.38 -7.62,12.41c-0.14,3.08 2.23,6.7 2.47,9.8c0.46,6 -1.35,11.28 -1.08,17.42c0.1,2.05 1.69,5.18 2.15,7.24c0.86,3.88 0.76,16.56 -0.1,22.18c-1.71,11 -15.12,15.45 -24.55,10.74c-6.75,-3.37 -7.7,-12.03 -4.3,-18.16c0.85,-1.52 3.4,-1.76 3.95,-3.4c0.88,-2.66 0.09,-5.6 0,-8.4c-0.08,-2.5 -2.05,-5.06 -2.15,-7.78c-0.14,-3.93 -0.14,-7.87 0,-11.8c0.08,-2.06 1.16,-4.16 1.08,-6.24c-0.27,-6.47 -4.07,-11.6 -2.34,-18.51c1.23,-4.93 6.58,-11.34 8.77,-16.16c0.3,-0.67 -0.03,-1.87 -0.29,-2.89c-2.22,0.43 -4.45,0.15 -6.7,0.55c-1.38,0.25 -2,2 -3.21,2.73c-3.55,2.13 -8.93,1.9 -12.88,0.92c-2.73,-0.68 -6.8,-1.62 -10.53,-3.15c-1.16947,-0.36841 -2.2781,-0.90757 -3.29,-1.6c-3.7,-2.15 -6.3,-5.17 -5.43,-9.52l-0.02,-0.8c0,-3.7 1.6,-7.01 4.14,-9.3c0.57216,-0.78126 1.3097,-1.42662 2.16,-1.89c1.66895,-0.90972 3.55011,-1.35844 5.45,-1.3c2.27444,-0.12351 4.54024,0.36695 6.56,1.42c1.12,0.36 2.12,1.32 3.3,1.24c1.79,-0.12 4.24,-2.67 6.23,-3.1c2.83,-0.63 6.02,-0.62 8.85,-0.65c1.9,-0.02 4.69,-2.04 6.55,-2.3c6.64,-0.97 12.4,1.17 19.02,1.23c1.5,0.01 3.01,0.15 4.5,0c1.26,-0.12 1.6,-1.97 2.54,-2.8c1.97,-1.76 6.32,-2.68 8.74,-2.2c9.2,1.87 13.9,12.72 9.73,21.07c-2.1,4.2 -11.1,7.78 -15.97,9c-1.58,0.4 -3.17,0.56 -4.76,0.57c0.37,4.53 0.7,8.98 -0.97,13.43z" fill="#a3504b"/><path d="M166.31501,191.10001c2.62088,1.8031 4.40511,4.58578 4.95,7.72c0.27711,1.19219 0.37818,2.41853 0.3,3.64c-0.07,5.53 -2.1,11.57 -2.66,16.53c-0.66,5.95 4.64,7.7 0.83,15.13c-2.08,4.04 -8.55,7.44 -12.93,6.46c-3.74,-0.83 -8.75,-3.9 -10.88,-6.75c-1.76,-2.34 -1.58,-5.72 -1.5,-8.64c0.24,-7.81 -0.27,-17.73 2.3,-25.4c0.56055,-3.74195 2.78587,-7.02862 6.05211,-8.93862c3.26624,-1.91 7.22184,-2.23775 10.75789,-0.89138c1,0.23 1.95,0.55 2.78,1.14zM216.68502,184.03001c12.37,-6.59 22.12,7.42 23.06,18c0.27,3 -2.34,5.6 -2.51,8.03c-0.43,6.21 3.9,10.48 0.34,17.14c-4.5,8.4 -17.35,8.27 -21.88,0c-0.93,-1.7 -1.06,-4.37 -1.56,-6.38c-0.58,-2.33 -2.22,-4.19 -2.85,-6.7c-0.7,-2.78 2.37,-9.4 1.85,-11.08c-0.94447,-1.17024 -1.66947,-2.50168 -2.14,-3.93c-0.54889,-0.93048 -0.75745,-2.02275 -0.59,-3.09l-0.02,-0.8c0,-3.7 1.6,-7 4.14,-9.3c0.57325,-0.77764 1.31071,-1.4195 2.16,-1.88zM241.87502,113.81001c0.6386,-0.31337 1.32444,-0.51946 2.03,-0.61c1.04,-0.37 2.14,-0.6 3.29,-0.68l0.22,-0.1c7.06,-3.5 14.63,-4.83 22.48,-4.83c3.53,0 6.38,1.84 9.93,1.68c4.26,-0.19 8.64,-2.76 13.12,-2.76c4.34,0 19.72,3.91 23.49,5.07c2.03,0.62 3.42,2.53 4.91,4.04c0.85,0.86 1.72,3.69 2,4.7c0.6,2.26 4.4,4.47 5.48,8.82c2.02,8.06 -1.18,15.04 -1.23,22.56c-0.04,4.62 0.4,10.6 1.6,15.11c0.27,0.97 3.66,2.83 4.34,4.47c1.40995,3.65052 2.14521,7.52674 2.17,11.44c0,5.97 -4.35,10.02 -5.43,15.45c-0.86459,4.7623 -0.85103,9.64257 0.04,14.4c1.6,7.7 1.88,15.86 2.1,23.74c0.16,5.86 3.34,8.53 0.05,14.48c-1.26,2.27 -10.4,11.74 -10.71,11.9c-9.58,4.79 -18.7,-3.69 -18.7,-12.95c0,-3.38 1.74,-8.77 4.37,-11.08c2.01,-1.77 0.15,-5.38 -0.01,-8.06c-0.34,-5.83 -1.54,-11.85 -2.14,-17.7c-0.73,-7.02 -0.7,-14.12 0.64,-21.1c0.33,-1.75 3.86,-8.13 3.62,-8.59c-0.9,-1.69 -2.9,-3.05 -3.77,-4.8c-2.58,-5.15 -1.9,-13.68 -3.17,-19.65c-1.41,-6.55 2.15,-12.33 1.07,-18.72c-0.15,-0.87 -2.01,-2.51 -2.3,-3.45c-0.23,-0.78 0.36,-1.8 -0.16,-2.44c-1.1,-1.35 -3.41,-0.77 -5.1,-1.2c-6.04,-1.5 -8.42,-0.1 -14.79,1.32c-5.29,1.18 -10.27,-2.32 -14.59,-1.6c-6.2,1.02 -11.54,5.02 -16.88,5.43c-5.78,0.45 -15.6,-5.59 -14.24,-12.3l-0.03,-0.81c0,-3.7 1.6,-7 4.14,-9.3c0.57325,-0.77764 1.31071,-1.4195 2.16,-1.88z" fill="#a3504b"/><path d="M264.24502,153.13001c0.97,0.05 2.3,-1.51 3.44,-1.8c5.27,-1.31 12.95,-2.63 17.64,1.17c6.84,5.54 9.76,17.73 0.1,22.56c-5.5,2.75 -5.81,1.46 -10.4,0.8c-2.58,-0.38 -6.58,2.45 -9.42,2.45c-7.83,0 -18.71,-3.3 -22.12,-11.33c-0.41706,-1.00597 -0.68651,-2.06693 -0.8,-3.15c-0.36535,-2.47455 0.01409,-5.00184 1.09,-7.26c1.52,-3.62 4.48,-6.52 8.56,-6.8c4.14993,-0.90973 8.47825,0.3436 11.5,3.33l0.4,0.04zM248.51502,230.96001c-2.38189,-2.66207 -4.34134,-5.67377 -5.81,-8.93c-1.29,-3.26 -1.15,-6.86 -1.2,-7.96c-0.12,-2.92 0.58,-5.93 0.75,-6.66c0.49,-2.01 2.51,-6.68 2.51,-6.68c0,0 0.92,-2.85 3.06,-5.37c2.22516,-2.53179 4.76979,-4.76381 7.57,-6.64c1.76,-0.87 6.59,-2.4 6.59,-2.4c0,0 8.3,-1.46 12.1,-1.37c1.47,0.04 6.24,0.65 9.4,1.7c1.87,0.62 5.85,3.38 8.4,5.92c1.18,1.17 4.05,6.29 5.25,10.85c0.8,3.08 0.93,8.52 0.06,12.88c-0.19,0.94 -2.04,5.32 -4.48,9.05c-2.63312,3.63466 -5.68776,6.94441 -9.1,9.86c-1.22,0.99 -6.07,3.56 -11.16,4.74c-5.16,1.19 -8.53,0.74 -10.8,0.09c-2.4,-0.7 -3.06,-0.39 -4.72,-1.85c-0.67,-0.6 -2.43,-3.57 -2.43,-3.57c0,0 -4.7,-2.32 -6,-3.66zM272.81502,210.19001l-2.9,0.18l-1.78,0.34l-0.03,0.02l-0.4,0.26l-0.46,0.87l-0.09,0.23l-0.2,1.16l0.4,0.26l1.71,0.8l0.35,0.29l0.06,0.02l1,-0.88l0.82,-0.75l0.86,-1.14l0.34,-0.75l0.11,-0.13l0.04,-0.17l0.3,-0.61z" fill="#a3504b"/><path d="M183.71127,173.82369c-14.60416,-2.92083 -28.41609,-8.60002 -42.91141,-12.07304c-2.50236,-0.59956 -5.68114,-0.07125 -8.30627,-0.60565c-16.00124,-3.25738 -31.96849,-6.3925 -47.66014,-10.82662c-2.11825,-0.59857 -10.89909,-2.36131 -15.05234,-4.37569c-2.49109,-1.20821 -4.80538,-2.77366 -7.34063,-3.88621c-9.54261,-4.18762 -29.29198,-8.33341 -21.78475,-23.43416c5.63722,-11.33924 18.0074,-4.9934 27.39806,-3.34105c6.70038,1.17898 10.78649,2.07143 18.56604,4.13704c7.28584,1.93452 14.57256,3.86589 21.8513,5.82701c4.37414,1.17853 9.05923,2.68079 13.35726,4.10407c4.38775,1.45299 17.72648,7.10462 24.76353,7.65665c3.71342,0.29131 7.42261,0.63488 11.13589,0.92799c0.20614,0.01627 0.68169,0.19748 0.62035,0c-2.50654,-8.06972 -7.82478,-15.55494 -11.7085,-23.03687c-1.46055,-2.81372 -4.40256,-8.40919 -4.42743,-11.64492c-0.11478,-14.93856 13.19899,-18.51767 25.13031,-14.25648c4.91717,1.75613 9.84268,8.68326 13.3804,11.91906c0.36143,0.33058 -0.0582,-0.97791 -0.08183,-1.46714c-0.05382,-1.11443 -0.15164,-2.22949 -0.32971,-3.33092c-0.52047,-3.21925 -0.9188,-6.55243 -1.12704,-9.77986c-0.63345,-9.81723 3.86264,-13.66233 12.5,-15.41351c4.2669,-0.86509 9.36728,1.89891 12.00363,5.27344c1.77967,2.27798 1.87405,5.53426 3.45544,7.9541c0.20453,0.31297 0.74448,-0.2337 1.11052,-0.15755c1.85283,0.38548 3.52645,1.44147 5.10351,2.48764c0.87716,0.58188 1.82625,3.0764 2.31723,2.14531c0.90569,-1.71756 0.72917,-3.81481 1.14241,-5.71205c0.79121,-3.63256 2.66566,-9.9339 3.11122,-11.52037c4.09266,-14.57243 9.06391,-28.79193 9.75682,-44.10535c0.46026,-10.17169 -1.95616,-23.19467 11.29452,-24.50675c1.80484,-0.17871 4.42687,-0.07063 6.2233,0.41489c7.76021,2.09735 7.65645,13.46049 8.85035,19.65987c2.74943,14.27665 5.13001,28.94546 6.35801,43.50447c0.61046,7.23757 1.33927,14.46497 1.92921,21.70425c0.11978,1.46981 -0.3785,4.11832 0.05631,5.08472c0.32419,0.72053 1.03887,-1.2843 1.77528,-1.57059c1.73464,-0.67437 3.65402,-1.09021 5.47116,-1.51676c1.27373,-0.29899 3.12177,0.53427 4.1167,0.30077c0.59723,-0.14017 0.66159,-1.09914 1.1977,-1.39732c4.58309,-2.54904 7.29002,-3.3427 12.57788,-0.69877c4.3509,2.17545 6.98771,5.64098 6.98771,10.48157c0,2.18441 -3.3162,7.52415 -1.44862,6.39111c4.50122,-2.73087 10.57722,-4.49018 15.90728,-3.15767c0.96483,0.24121 3.95813,1.09421 4.41544,1.33811c0.64914,0.34621 0.83483,1.74248 1.55025,1.57097c1.92099,-0.46053 5.07521,-2.11491 7.0111,-2.08469c4.7363,0.07394 10.67172,1.92661 12.92727,6.46363c1.84804,3.71733 0.61622,6.35746 0.65572,10.06812c0.01348,1.26643 2.3799,0.8749 3.53053,1.40411c2.51195,1.15533 5.55799,3.31096 6.49661,6.00881c0.23844,0.68533 1.63092,4.94065 1.39754,6.90037c-0.07477,0.62784 -1.44515,5.12706 -1.33421,5.25343c0.94002,1.07074 3.61744,-0.31171 4.66242,-0.59795c8.24422,-2.25827 16.35989,-3.82312 24.48193,-5.85363c7.45161,-1.8629 15.47342,3.61921 15.76927,11.35004c0.33642,8.79092 17.59472,-0.06968 26.39204,-0.04262c10.2273,0.03145 25.48335,0.79593 27.7891,13.42465c0.28692,1.57146 1.29363,3.15867 0.90041,4.70695c-2.63197,10.36339 -13.77922,12.44055 -23.11141,13.36462c-8.62651,0.85419 -17.34052,0.01133 -26.00434,0.30196c-2.29754,0.07707 -6.7517,3.25022 -10.16557,3.39909c-10.44556,0.45552 -21.16052,-3.02043 -31.40137,-0.70403c-9.3043,2.10456 -18.63049,5.65849 -27.89346,8.01735c-2.81595,0.7171 -6.5122,1.00142 -9.07888,1.33067c-1.29436,0.16604 -2.58425,0.37681 -3.88467,0.48558c-0.27642,0.02312 -1.06781,-0.22335 -0.82791,-0.08411c16.01353,9.29465 31.21899,19.22563 46.33,29.92906c10.5551,7.47639 20.9461,15.31993 32.25636,21.55786c3.11152,1.71609 6.47939,3.60132 9.43756,5.58914c9.17658,6.16644 25.68576,20.0354 12.94365,31.08658c-2.2026,1.9103 -4.13237,3.204 -7.27355,3.38572c-7.56243,0.4375 -14.01956,-7.28624 -19.55535,-11.4207c-2.6012,-1.94273 -5.40362,-3.60064 -8.08433,-5.4321c-11.34296,-7.74955 -23.60846,-14.64159 -35.75478,-21.12685c-5.95606,-3.18011 -16.67564,-8.37903 -22.59852,-12.39368c-8.15622,-5.52846 -16.36996,-11.01967 -25.00693,-15.76209c-1.90724,-1.04724 -3.6627,-2.9445 -5.8384,-2.9192c-1.05495,0.01227 0.69893,1.99135 1.08164,2.97451c0.92459,2.37522 1.91244,4.72546 2.83984,7.09959c1.06464,2.72547 2.57129,7.23872 3.09493,8.73707c0.84952,2.43086 2.40552,3.93546 3.52038,6.16519c1.39998,2.79995 1.45874,6.61555 2.20033,9.69044c1.85841,7.70561 3.38122,14.41525 -0.65554,21.5487c-0.74215,1.31146 -5.0038,2.88524 -6.53709,3.64751c-3.00998,1.49639 -10.7713,-0.55356 -12.53107,-3.85313c-3.97955,-7.46167 -5.17166,-15.46628 -7.77275,-23.39543c-0.60124,-1.83281 -2.58863,-2.98996 -3.76321,-4.39669c-1.69643,-2.03172 -2.56063,-5.64976 -5.18193,-6.01659c-0.08377,-0.01172 -0.48662,2.30133 -0.63741,2.84058c-0.77243,2.76222 -1.52586,5.53229 -2.42792,8.25493c-0.88701,2.67721 -2.40792,5.45221 -3.7852,7.91349c-2.33441,4.17171 -6.20958,10.33367 -9.72082,13.67384c-1.01702,0.96747 -2.75864,0.72487 -3.94309,1.47813c-1.38193,0.87884 -2.3591,5.42975 -3.08011,6.56277c-1.3079,2.05527 -3.55753,3.69429 -5.63367,4.92946c-1.96285,1.16777 -5.375,0.5378 -7.40569,0.07135c-7.64377,-1.75578 -13.82382,-11.19267 -13.82382,-19.43152c0,-2.9756 2.19058,-6.83106 0.07788,-8.92646c-1.44956,-1.4377 -2.89057,2.8993 -4.13871,4.51496c-3.65796,4.73507 -6.72564,10.52779 -11.0968,14.68598c-4.46892,4.25118 -16.31097,1.45565 -18.4069,-4.34528c-6.65033,-18.40615 10.63661,-36.05004 19.52178,-50.22305c1.77683,-2.83427 4.48554,-5.29246 5.2596,-8.54685c0.24888,-1.04639 -2.23644,-0.41976 -3.22673,0c-1.1962,0.50704 -2.0164,1.65084 -2.9047,2.59894c-2.01583,2.15152 -3.83553,4.47916 -5.79284,6.68405c-4.19801,4.72901 -11.7408,12.54787 -17.3841,16.6583c-9.12782,6.64846 -18.56553,10.4934 -28.87498,14.82074c-5.44791,2.28673 -11.98707,5.26405 -16.60341,8.99433c-3.68112,2.97457 -6.58608,6.74836 -10.09685,9.70843c-4.41566,3.72302 -9.58764,6.5905 -14.41624,9.78568c-9.66146,6.39317 -16.90543,12.2657 -27.30634,2.19841c-2.51145,-2.43089 -2.61857,-11.5727 0,-14.45312c2.97733,-3.27507 6.42518,-5.29358 9.76859,-8.15862c5.16487,-4.42589 9.0294,-10.04211 14.15108,-14.67998c12.92442,-11.70356 26.44518,-21.51251 40.82878,-31.28962c0.13067,-0.08882 -0.31527,0.0356 -0.47312,0.02869c-2.96721,-0.12988 -5.93007,-0.35181 -8.89784,-0.46831c-2.83953,-0.11146 -6.00945,0.35425 -8.81286,-0.3466c-8.78903,-2.19726 -12.46595,-12.93128 -8.20348,-20.35113c1.87299,-3.2604 7.22326,-5.25984 10.54688,-5.27344c8.33564,-0.0341 14.80873,-0.15237 22.29449,-0.23219c3.18677,-0.03398 6.83648,-2.17654 10.12701,-2.51124c5.33074,-0.54221 12.73697,-0.16175 16.8607,-0.17008c1.40043,-0.00283 3.44654,-4.14432 5.38853,-5.30951z" fill="#ff0000"/><path d="M242.31313,186.70532c-21.20377,6.2364 -41.78655,20.35904 -60.29154,32.45724c-8.90946,5.82483 -18.25437,17.72201 -28.69204,6.00252c-4.78304,-5.37043 -1.78632,-13.42104 2.08397,-18.26228c9.00021,-11.25812 24.10253,-16.31082 36.14747,-23.52361c3.35067,-2.00646 12.40905,-9.02321 15.24402,-11.22852c1.6001,-1.24471 3.14446,-2.56018 4.74899,-3.79919c0.25255,-0.19502 1.07432,-0.47378 0.76978,-0.56902c-3.79815,-1.18786 -7.80073,-2.13259 -11.48147,-3.54755c-1.17241,-0.4507 -2.75638,-1.95175 -3.7831,-2.17059c-10.86609,-2.31614 -27.64025,1.76822 -25.66643,-15.28695c0.3522,-3.04328 0.90348,-5.29329 3.32054,-7.38075c6.90695,-5.9651 19.95865,-4.17399 28.20767,-2.27787c2.93195,0.67394 4.69841,1.92608 7.93965,2.43255c4.28745,0.66994 8.61857,1.10269 12.95373,1.29626c1.86506,0.08327 4.27294,1.2073 5.59975,-0.10607c3.4118,-3.37725 0.8901,-10.23372 0.02818,-14.07753c-2.44244,-10.89233 -8.63741,-27.593 1.14602,-36.30638c1.42604,-1.27006 5.49794,-1.60328 7.22656,-1.95312c6.03624,-1.22162 10.12846,4.6404 12.25271,9.30756c5.22789,11.48612 10.68929,22.62384 13.88879,34.86554c0.65858,2.51982 1.33394,5.26149 1.77157,7.8338c0.2464,1.44831 -0.83217,4.1632 0.6233,4.36307c2.94471,0.40436 5.55468,-2.11849 8.34926,-3.13097c3.60148,-1.30483 7.5579,-2.34764 11.31014,-3.21949c0.26044,-0.06051 0.47258,-0.2718 0.7356,-0.31983c0.34294,-0.06262 9.81247,-2.07528 13.70901,-2.11241c8.52592,-0.08124 17.05398,0.15229 25.57893,0c3.63041,-0.06485 7.50444,-2.71535 11.30195,-3.15635c10.1819,-1.1824 36.61988,-1.74327 36.31716,14.1996c-0.35558,18.72725 -31.90009,13.27973 -42.57059,13.95675c-1.2201,0.07741 -3.15862,1.39405 -4.56214,1.85892c-2.56976,0.85115 -5.16898,1.61069 -7.75149,2.42234c-6.74006,2.11831 -14.47146,4.79799 -21.31635,6.18083c-5.50884,1.11292 -13.46725,2.70424 -19.13906,3.51021c-2.42505,0.3446 -4.84851,0.7082 -7.28377,0.97117c-0.11604,0.01253 -2.31703,0.05383 -2.30944,0.10965c1.70222,12.53056 7.10197,23.76138 9.60243,35.99026c1.4178,6.93395 0.69336,14.70418 0.64146,21.43388c-0.04522,5.86328 -4.81558,12.33748 -11.123,12.71077c-15.04087,0.89015 -19.3802,-19.69622 -19.70401,-31.16297c-0.11031,-3.90624 0.06329,-7.81612 0,-11.7234c-0.06802,-4.1992 -1.64954,-7.57806 -2.91814,-11.54972c-0.85314,-2.67095 -1.05836,-5.80217 -1.93844,-5.6066z" fill="#ffa100"/></g></g></svg>