<svg version="1.1" xmlns="http://www.w3.org/2000/svg" xmlns:xlink="http://www.w3.org/1999/xlink" width="486.49343" height="257.5759" viewBox="0,0,486.49343,257.5759"><g transform="translate(11.13845,-54.51506)"><g data-paper-data="{&quot;isPaintingLayer&quot;:true}" fill="#a3504b" fill-rule="nonzero" stroke="none" stroke-width="0.5" stroke-linecap="butt" stroke-linejoin="miter" stroke-miterlimit="10" stroke-dasharray="" stroke-dashoffset="0" style="mix-blend-mode: normal"><path d="M94.5787,215.88936c-0.41622,4.57615 -5.1671,9.08435 -4.03946,13.99126c0.68539,3.00603 3.93394,5.86405 4.99093,8.78815c2.04143,5.66076 1.70309,11.23211 3.59868,17.07842c0.64239,1.94932 3.0086,4.54278 4.00065,6.40585c1.86234,3.5108 5.14316,15.75941 5.81106,21.40547c1.28152,11.05811 -10.45887,18.91901 -20.80272,16.89074c-7.40375,-1.45047 -10.62595,-9.54463 -8.98144,-16.35877c0.41446,-1.69149 2.80843,-2.60199 2.90176,-4.32924c0.13975,-2.7983 -1.40476,-5.42169 -2.23727,-8.09658c-0.74296,-2.38839 -3.32364,-4.33123 -4.14447,-6.92634c-1.18166,-3.75076 -2.23105,-7.54844 -3.14283,-11.37377c-0.47155,-2.0069 0.01012,-4.31869 -0.62098,-6.30225c-1.98348,-6.16438 -7.01255,-10.09698 -7.18545,-17.21816c-0.12749,-5.07952 3.32201,-12.68291 4.14914,-17.91209c0.11071,-0.7257 -0.52697,-1.79446 -1.04925,-2.70837c-2.02528,1.00575 -4.24931,1.3298 -6.3115,2.31462c-1.26357,0.60852 -1.39507,2.46044 -2.36694,3.48634c-2.85446,2.99857 -8.10139,4.2098 -12.16972,4.31724c-2.8125,0.07167 -6.98585,0.24964 -10.98862,-0.23164c-1.22535,-0.04362 -2.43754,-0.26804 -3.59731,-0.66594c-4.13899,-1.08688 -7.44942,-3.3053 -7.76943,-7.72989l-0.23235,-0.76578c-0.98546,-3.56635 -0.32485,-7.18294 1.51348,-10.06673c0.34341,-0.90543 0.88242,-1.72392 1.57859,-2.39703c1.36637,-1.32137 3.06007,-2.25491 4.9069,-2.7046c2.15939,-0.72483 4.47397,-0.85556 6.70125,-0.37849c1.17543,0.04869 2.39499,0.70768 3.51106,0.31628c1.69338,-0.59242 3.37571,-3.70284 5.17931,-4.64733c2.55998,-1.36099 5.63742,-2.20098 8.35721,-2.98364c1.82604,-0.52533 3.97726,-3.21545 5.70082,-3.96146c6.1418,-2.70347 12.26372,-2.17489 18.66057,-3.88024c1.44848,-0.38987 2.94123,-0.65711 4.33745,-1.19854c1.18253,-0.45126 1.01751,-2.32499 1.7025,-3.37537c1.43008,-2.22112 5.37792,-4.26647 7.83835,-4.44836c9.36574,-0.64789 16.78578,8.55839 14.99035,17.71742c-0.90551,4.60761 -8.62692,10.45537 -12.99607,12.92838c-1.41639,0.80637 -2.90634,1.38407 -4.43625,1.8172c1.56316,4.26782 3.06646,8.46919 2.642,13.20324z"/><path d="M68.68796,83.20247c1.23238,-1.97993 -0.21208,-5.60809 0.6414,-7.91973c3.0299,-8.18871 8.35777,-11.72971 14.52509,-16.85302c2.78947,-2.30852 3.66351,-4.24269 8.21632,-3.86794c6.9832,0.55838 13.58063,6.37672 12.56503,13.79838c-0.68472,4.97079 -2.22223,6.47565 -5.29471,9.26905c-0.12896,0.11777 -5.48258,4.44064 -5.48907,4.521c-0.04706,2.8508 -0.22326,5.35894 -1.23037,8.00163c-0.36622,0.96098 -1.28066,1.83791 -1.12865,2.83822c0.74257,4.8321 1.06178,10.05312 -2.75481,13.86412c-4.65285,4.64446 -19.38419,5.62126 -23.98672,0.46409c-3.75319,-2.56453 -5.81856,-6.9642 -5.39346,-11.48996c0.4251,-4.52576 3.27361,-8.46401 7.43878,-10.28464c0.70427,-0.69355 1.33988,-1.44613 1.88554,-2.33291z"/><path d="M399.71941,70.84223c0.70865,-0.06181 1.42265,-0.00652 2.11335,0.16365c1.10344,0.03023 2.21232,0.21266 3.3137,0.55304l0.24126,-0.01388c7.8473,-0.71651 15.38719,0.77479 22.70826,3.60752c3.29216,1.27382 5.28613,4.01829 8.65468,5.15013c4.04153,1.36006 9.05382,0.54377 13.23196,2.16042c4.04757,1.56613 16.98032,10.76267 20.07771,13.20494c1.66949,1.31077 2.2766,3.59367 3.1213,5.5396c0.4824,1.10878 0.27254,4.06204 0.1692,5.10503c-0.25597,2.32424 2.4905,5.75659 1.928,10.20322c-1.02462,8.24585 -6.5278,13.6008 -9.28808,20.59607c-1.70447,4.29427 -3.45204,10.03012 -3.96037,14.66927c-0.09823,1.00207 2.39217,3.96005 2.43454,5.73494c-0.00237,3.91334 -0.71542,7.79371 -2.10443,11.45224c-2.15432,5.56775 -7.67269,7.77513 -10.63938,12.44953c-2.52485,4.12942 -4.27329,8.68576 -5.15906,13.44417c-1.28641,7.75855 -3.96987,15.46978 -6.60826,22.89823c-1.96541,5.52289 0.03683,9.16051 -5.1786,13.52239c-1.99425,1.66237 -13.93573,7.19605 -14.28257,7.23339c-10.66302,1.01023 -16.10845,-10.18941 -12.7669,-18.82548c1.2197,-3.15226 4.78748,-7.55119 8.07386,-8.75649c2.51329,-0.92542 2.08131,-4.96337 2.89919,-7.52053c1.78671,-5.55987 2.83993,-11.60728 4.39138,-17.27963c1.85241,-6.81043 4.44248,-13.42121 8.21098,-19.44735c0.93926,-1.51301 6.53369,-6.18929 6.47586,-6.7049c-0.2295,-1.90091 -1.60398,-3.89099 -1.78386,-5.83701c-0.54774,-5.73401 3.16455,-13.44389 4.13444,-19.46992c1.04862,-6.61748 6.45451,-10.72337 7.75316,-17.07254c0.17407,-0.8655 -0.96881,-3.0662 -0.90007,-4.04751c0.06697,-0.81044 0.98529,-1.54881 0.73129,-2.33333c-0.53873,-1.65598 -2.90237,-1.94864 -4.32333,-2.95952c-5.09174,-3.57852 -7.81657,-3.13169 -14.26979,-4.10603c-5.35938,-0.80845 -8.74082,-5.86969 -13.02957,-6.75712c-6.15032,-1.28604 -12.57395,0.51746 -17.7021,-1.02715c-5.55292,-1.66613 -12.5317,-10.84273 -8.84197,-16.60985l0.26432,-0.76625c1.33518,-3.4507 4.0182,-5.95098 7.21703,-7.17942c0.81524,-0.51838 1.73463,-0.85088 2.69288,-0.97387z"/><path d="M221.50313,256.12779c2.47475,-13.79567 19.51381,-12.78912 28.40787,-6.9826c2.52406,1.64378 2.95226,5.30281 4.7563,6.93964c4.6131,4.17951 10.64662,3.41904 13.67697,10.33613c3.81592,8.73205 -4.23557,18.74768 -13.53556,17.19079c-1.91099,-0.32098 -4.08919,-1.87058 -5.97772,-2.72117c-2.18945,-0.9857 -4.66537,-0.84783 -7.02717,-1.9056c-2.61724,-1.1698 -5.9193,-7.67716 -7.56092,-8.3079c-1.50371,0.01811 -2.99832,-0.23594 -4.4116,-0.74985c-1.07063,-0.14436 -2.05782,-0.65621 -2.79275,-1.448l-0.6409,-0.47921c-2.90703,-2.28892 -4.51,-5.58749 -4.74575,-9.00597c-0.25635,-0.93146 -0.30444,-1.90795 -0.14086,-2.86009z"/><path d="M13.66886,148.89017c2.47097,2.00363 4.03083,4.91801 4.32755,8.08537c0.18249,1.21029 0.1868,2.44078 0.0128,3.65232c-0.50467,5.50737 -3.00339,11.36902 -3.95172,16.26962c-1.12588,5.87967 4.02008,8.04106 -0.36243,15.14842c-2.39128,3.86391 -9.10862,6.74457 -13.39799,5.42315c-3.66315,-1.12155 -8.4162,-4.57604 -10.31547,-7.58472c-1.57053,-2.47117 -1.12528,-5.82654 -0.81589,-8.73121c0.85345,-7.76693 1.12517,-17.69632 4.2904,-25.14045c0.85309,-3.68628 3.32999,-6.78777 6.73632,-8.43499c3.40633,-1.64722 7.37545,-1.66288 10.79467,-0.0426c0.97881,0.30793 1.90071,0.70165 2.68174,1.3551z"/><path d="M391.07891,280.83834c0.6707,1.85242 0.96724,6.68695 0.55102,10.26199c-0.18839,1.651 -2.43242,7.07425 -5.27077,10.83954c-1.92365,2.53495 -6.11429,6.00442 -10.077,8.02021c-0.85585,0.43269 -5.44184,1.69133 -9.88169,2.08413c-4.48451,0.1821 -8.97407,-0.16806 -13.37618,-1.04298c-1.53274,-0.34527 -6.55376,-2.56326 -10.63143,-5.83023c-4.12886,-3.31575 -5.86201,-6.24167 -6.75677,-8.4268c-0.93597,-2.31818 -1.58753,-2.64339 -1.46854,-4.85088c0.05645,-0.89762 1.29986,-4.11836 1.29986,-4.11836c0,0 -1.08738,-5.12745 -0.83977,-6.97793l0.00605,0.00767c0.61616,-3.51857 1.76783,-6.92206 3.41595,-10.09124c1.76168,-3.0312 4.6753,-5.14858 5.50823,-5.8688c2.21894,-1.90186 5.01632,-3.21555 5.69486,-3.53395c1.88189,-0.85946 6.80111,-2.1652 6.80111,-2.1652c0,0 2.80623,-1.04234 6.11008,-0.92168c3.36583,0.18024 6.69469,0.79679 9.90162,1.8345c1.77278,0.84365 5.96306,3.69061 5.96306,3.69061c0,0 6.28654,5.61517 8.56824,8.65522c0.87859,1.17923 3.3505,5.30248 4.48207,8.4342zM364.05184,284.86544l-1.36957,-1.18853l-0.03348,-0.01092l-0.4534,-0.15243l-0.96793,0.17604l-0.23662,0.07212l-1.03446,0.56174l0.04386,0.47525l0.43058,1.83667l-0.01092,0.45625l0.02093,0.0581l1.3093,0.24127l1.09683,0.17995l1.42779,-0.03118l0.79939,-0.19739l0.17169,0.00642l0.15764,-0.07452l0.66477,-0.141l-0.08101,-0.10277z"/><path d="M373.23371,138.73337c0.71985,0.65209 2.73663,0.28454 3.80317,0.78073c4.91103,2.31749 11.69543,6.15113 12.92596,12.0606c1.7959,8.61696 -3.64999,19.90698 -14.18776,17.54055c-5.99976,-1.34735 -5.42422,-2.54273 -8.56278,-5.95641c-1.75845,-1.92578 -6.64675,-2.26267 -8.84691,-4.05847c-6.06593,-4.9511 -12.40804,-14.38731 -9.97222,-22.7644c0.313,-1.04305 0.77513,-2.03536 1.37206,-2.94618c1.28168,-2.14806 3.17371,-3.86603 5.4351,-4.93512c3.46656,-1.8433 7.59343,-2.21826 10.93127,0.14471c3.79021,1.91933 6.35087,5.62719 6.80346,9.85149l0.28459,0.28392z"/></g></g></svg>