<svg version="1.1" xmlns="http://www.w3.org/2000/svg" xmlns:xlink="http://www.w3.org/1999/xlink" width="322.85396" height="282.12972" viewBox="0,0,322.85396,282.12972"><g transform="translate(-105.86808,-35.95698)"><g data-paper-data="{&quot;isPaintingLayer&quot;:true}" fill-rule="nonzero" stroke="none" stroke-width="0.5" stroke-linecap="butt" stroke-linejoin="miter" stroke-miterlimit="10" stroke-dasharray="" stroke-dashoffset="0" style="mix-blend-mode: normal"><path d="M179.96502,100.69001c2.33,-0.1 4.51,-3.34 6.9,-3.94c8.47,-2.12 14.4,0.28 22.11,2.48c3.48,1 5.57,0.63 7.83,4.6c3.48,6.08 2.4,14.81 -4.3,18.16c-4.49,2.24 -6.6,1.82 -10.64,0.86c-0.17,-0.04 -6.76,-2.02 -6.83,-1.98c-2.38,1.57 -4.55,2.84 -7.3,3.5c-1,0.24 -2.24,-0.02 -2.98,0.67c-3.57,3.34 -7.7,6.55 -13,5.55c-6.46,-1.22 -15.58,-12.83 -13.92,-19.54c-0.00115,-4.54569 2.4655,-8.73368 6.44159,-10.93685c3.97609,-2.20317 8.83481,-2.07418 12.68841,0.33685c0.97,0.19 1.95,0.29 2.99,0.24zM210.51502,181.58001c-1.62,4.3 -7.4,7.38 -7.62,12.41c-0.14,3.08 2.23,6.7 2.47,9.8c0.46,6 -1.35,11.28 -1.08,17.42c0.1,2.05 1.69,5.18 2.15,7.24c0.86,3.88 0.76,16.56 -0.1,22.18c-1.71,11 -15.12,15.45 -24.55,10.74c-6.75,-3.37 -7.7,-12.03 -4.3,-18.16c0.85,-1.52 3.4,-1.76 3.95,-3.4c0.88,-2.66 0.09,-5.6 0,-8.4c-0.08,-2.5 -2.05,-5.06 -2.15,-7.78c-0.14,-3.93 -0.14,-7.87 0,-11.8c0.08,-2.06 1.16,-4.16 1.08,-6.24c-0.27,-6.47 -4.07,-11.6 -2.34,-18.51c1.23,-4.93 6.58,-11.34 8.77,-16.16c0.3,-0.67 -0.03,-1.87 -0.29,-2.89c-2.22,0.43 -4.45,0.15 -6.7,0.55c-1.38,0.25 -2,2 -3.21,2.73c-3.55,2.13 -8.93,1.9 -12.88,0.92c-2.73,-0.68 -6.8,-1.62 -10.53,-3.15c-1.16947,-0.36841 -2.2781,-0.90757 -3.29,-1.6c-3.7,-2.15 -6.3,-5.17 -5.43,-9.52l-0.02,-0.8c0,-3.7 1.6,-7.01 4.14,-9.3c0.57216,-0.78126 1.3097,-1.42662 2.16,-1.89c1.66895,-0.90972 3.55011,-1.35844 5.45,-1.3c2.27444,-0.12351 4.54024,0.36695 6.56,1.42c1.12,0.36 2.12,1.32 3.3,1.24c1.79,-0.12 4.24,-2.67 6.23,-3.1c2.83,-0.63 6.02,-0.62 8.85,-0.65c1.9,-0.02 4.69,-2.04 6.55,-2.3c6.64,-0.97 12.4,1.17 19.02,1.23c1.5,0.01 3.01,0.15 4.5,0c1.26,-0.12 1.6,-1.97 2.54,-2.8c1.97,-1.76 6.32,-2.68 8.74,-2.2c9.2,1.87 13.9,12.72 9.73,21.07c-2.1,4.2 -11.1,7.78 -15.97,9c-1.58,0.4 -3.17,0.56 -4.76,0.57c0.37,4.53 0.7,8.98 -0.97,13.43z" fill="#a3504b"/><path d="M166.31501,191.10001c2.62088,1.8031 4.40511,4.58578 4.95,7.72c0.27711,1.19219 0.37818,2.41853 0.3,3.64c-0.07,5.53 -2.1,11.57 -2.66,16.53c-0.66,5.95 4.64,7.7 0.83,15.13c-2.08,4.04 -8.55,7.44 -12.93,6.46c-3.74,-0.83 -8.75,-3.9 -10.88,-6.75c-1.76,-2.34 -1.58,-5.72 -1.5,-8.64c0.24,-7.81 -0.27,-17.73 2.3,-25.4c0.56055,-3.74195 2.78587,-7.02862 6.05211,-8.93862c3.26624,-1.91 7.22184,-2.23775 10.75789,-0.89138c1,0.23 1.95,0.55 2.78,1.14zM216.68502,184.03001c12.37,-6.59 22.12,7.42 23.06,18c0.27,3 -2.34,5.6 -2.51,8.03c-0.43,6.21 3.9,10.48 0.34,17.14c-4.5,8.4 -17.35,8.27 -21.88,0c-0.93,-1.7 -1.06,-4.37 -1.56,-6.38c-0.58,-2.33 -2.22,-4.19 -2.85,-6.7c-0.7,-2.78 2.37,-9.4 1.85,-11.08c-0.94447,-1.17024 -1.66947,-2.50168 -2.14,-3.93c-0.54889,-0.93048 -0.75745,-2.02275 -0.59,-3.09l-0.02,-0.8c0,-3.7 1.6,-7 4.14,-9.3c0.57325,-0.77764 1.31071,-1.4195 2.16,-1.88zM241.87502,113.81001c0.6386,-0.31337 1.32444,-0.51946 2.03,-0.61c1.04,-0.37 2.14,-0.6 3.29,-0.68l0.22,-0.1c7.06,-3.5 14.63,-4.83 22.48,-4.83c3.53,0 6.38,1.84 9.93,1.68c4.26,-0.19 8.64,-2.76 13.12,-2.76c4.34,0 19.72,3.91 23.49,5.07c2.03,0.62 3.42,2.53 4.91,4.04c0.85,0.86 1.72,3.69 2,4.7c0.6,2.26 4.4,4.47 5.48,8.82c2.02,8.06 -1.18,15.04 -1.23,22.56c-0.04,4.62 0.4,10.6 1.6,15.11c0.27,0.97 3.66,2.83 4.34,4.47c1.40995,3.65052 2.14521,7.52674 2.17,11.44c0,5.97 -4.35,10.02 -5.43,15.45c-0.86459,4.7623 -0.85103,9.64257 0.04,14.4c1.6,7.7 1.88,15.86 2.1,23.74c0.16,5.86 3.34,8.53 0.05,14.48c-1.26,2.27 -10.4,11.74 -10.71,11.9c-9.58,4.79 -18.7,-3.69 -18.7,-12.95c0,-3.38 1.74,-8.77 4.37,-11.08c2.01,-1.77 0.15,-5.38 -0.01,-8.06c-0.34,-5.83 -1.54,-11.85 -2.14,-17.7c-0.73,-7.02 -0.7,-14.12 0.64,-21.1c0.33,-1.75 3.86,-8.13 3.62,-8.59c-0.9,-1.69 -2.9,-3.05 -3.77,-4.8c-2.58,-5.15 -1.9,-13.68 -3.17,-19.65c-1.41,-6.55 2.15,-12.33 1.07,-18.72c-0.15,-0.87 -2.01,-2.51 -2.3,-3.45c-0.23,-0.78 0.36,-1.8 -0.16,-2.44c-1.1,-1.35 -3.41,-0.77 -5.1,-1.2c-6.04,-1.5 -8.42,-0.1 -14.79,1.32c-5.29,1.18 -10.27,-2.32 -14.59,-1.6c-6.2,1.02 -11.54,5.02 -16.88,5.43c-5.78,0.45 -15.6,-5.59 -14.24,-12.3l-0.03,-0.81c0,-3.7 1.6,-7 4.14,-9.3c0.57325,-0.77764 1.31071,-1.4195 2.16,-1.88z" fill="#a3504b"/><path d="M264.24502,153.13001c0.97,0.05 2.3,-1.51 3.44,-1.8c5.27,-1.31 12.95,-2.63 17.64,1.17c6.84,5.54 9.76,17.73 0.1,22.56c-5.5,2.75 -5.81,1.46 -10.4,0.8c-2.58,-0.38 -6.58,2.45 -9.42,2.45c-7.83,0 -18.71,-3.3 -22.12,-11.33c-0.41706,-1.00597 -0.68651,-2.06693 -0.8,-3.15c-0.36535,-2.47455 0.01409,-5.00184 1.09,-7.26c1.52,-3.62 4.48,-6.52 8.56,-6.8c4.14993,-0.90973 8.47825,0.3436 11.5,3.33l0.4,0.04zM248.51502,230.96001c-2.38189,-2.66207 -4.34134,-5.67377 -5.81,-8.93c-1.29,-3.26 -1.15,-6.86 -1.2,-7.96c-0.12,-2.92 0.58,-5.93 0.75,-6.66c0.49,-2.01 2.51,-6.68 2.51,-6.68c0,0 0.92,-2.85 3.06,-5.37c2.22516,-2.53179 4.76979,-4.76381 7.57,-6.64c1.76,-0.87 6.59,-2.4 6.59,-2.4c0,0 8.3,-1.46 12.1,-1.37c1.47,0.04 6.24,0.65 9.4,1.7c1.87,0.62 5.85,3.38 8.4,5.92c1.18,1.17 4.05,6.29 5.25,10.85c0.8,3.08 0.93,8.52 0.06,12.88c-0.19,0.94 -2.04,5.32 -4.48,9.05c-2.63312,3.63466 -5.68776,6.94441 -9.1,9.86c-1.22,0.99 -6.07,3.56 -11.16,4.74c-5.16,1.19 -8.53,0.74 -10.8,0.09c-2.4,-0.7 -3.06,-0.39 -4.72,-1.85c-0.67,-0.6 -2.43,-3.57 -2.43,-3.57c0,0 -4.7,-2.32 -6,-3.66zM272.81502,210.19001l-2.9,0.18l-1.78,0.34l-0.03,0.02l-0.4,0.26l-0.46,0.87l-0.09,0.23l-0.2,1.16l0.4,0.26l1.71,0.8l0.35,0.29l0.06,0.02l1,-0.88l0.82,-0.75l0.86,-1.14l0.34,-0.75l0.11,-0.13l0.04,-0.17l0.3,-0.61z" fill="#a3504b"/><path d="M198.7337,123.99246c-6.14882,-10.54084 -13.30434,-18.86565 -21.06272,-28.2395c-7.54599,-9.11724 -14.10799,-19.05192 -17.58963,-30.4916c-1.14781,-3.77138 1.40854,-7.35445 3.80971,-9.94742c6.09203,-6.57864 12.69498,-5.00064 18.66553,-0.15276c11.16501,9.06561 17.53852,24.0908 24.9936,36.0636c4.44994,7.14657 14.08588,16.8587 18.85306,22.39895c2.08813,2.42676 4.2446,4.79527 6.29023,7.25796c0.74439,0.89616 1.76165,3.20589 2.53215,3.70376c1.07444,0.69428 2.0531,-1.53645 2.98049,-2.41758c5.53092,-5.25505 11.17635,-11.85299 15.33892,-18.41444c7.57742,-11.94429 12.63483,-25.97295 21.05697,-37.2789c3.27489,-4.39624 6.90885,-9.78356 10.70183,-13.74126c2.16691,-2.26101 4.8076,-4.10615 6.64338,-6.64338c0.78118,-1.07967 0.30752,-2.72205 0.96964,-3.87856c3.70901,-6.47843 11.77497,-7.94778 18.16406,-4.29687c12.64407,7.22518 0.96186,25.15047 -2.57261,33.0748c-0.0491,0.11009 3.14902,1.83253 5.15605,3.10973c1.91152,1.21642 3.57376,4.35952 4.28573,6.49544c3.17526,9.52579 -0.28406,18.92324 -6.22807,26.23534c-6.96573,8.56898 -13.90706,16.78827 -19.14567,26.61492c-1.15769,2.17161 -3.73835,4.84901 -2.46939,6.95754c0.18935,0.31462 4.71456,-1.8114 6.12129,-2.15735c10.09772,-2.48324 11.81637,-2.50543 21.79069,-3.63486c19.74093,-2.23535 39.49987,-3.78678 59.3501,-4.90657c8.45545,-0.47699 16.94085,0.20392 25.40667,-0.02434c9.98415,-0.2692 19.7686,-4.76524 24.68747,6.73033c0.88558,2.06964 1.39641,3.73626 1.2264,6.05984c-0.78766,10.76463 -15.44579,13.70318 -23.67907,14.13576c-6.52529,0.34284 -13.04377,0.95424 -19.57797,0.98757c-5.09273,0.02598 -10.18716,-0.12634 -15.2784,0c-7.50344,0.1862 -15.01899,0.30117 -22.49772,0.9374c-6.15278,0.52343 -20.64191,2.47991 -28.99659,4.10691c-0.53145,0.1035 1.09673,-0.12757 1.6243,-0.00581c0.79369,0.18319 1.48714,0.68094 2.27119,0.90179c1.92352,0.54182 4.89409,2.99235 5.86257,4.67821c3.20251,5.57474 2.34842,10.8517 -1.64273,15.82655c-6.60751,8.23605 -19.41991,9.47424 -29.01943,10.40304c-2.26911,0.21955 -7.81552,0.93045 -11.38238,1.02748c-1.60188,0.04357 -4.00949,-1.38969 -4.80743,0c-1.02075,1.77774 8.03733,9.60148 8.24586,9.78771c8.29271,7.4059 10.81683,25.88381 1.36021,32.93293c-0.89185,0.6648 -2.17185,0.50248 -3.2215,0.87068c-11.41072,4.00266 -15.96226,-5.6842 -19.51725,-14.58539c-0.82562,-2.06724 -1.75303,-4.09235 -2.6306,-6.13807c-0.3075,-0.71681 -1.18131,-1.7526 -1.87618,-1.39831c-0.62727,0.31983 0.31961,1.37201 0.51231,2.04923c0.43597,1.53222 1.0194,3.02432 1.37327,4.57756c1.19931,5.26418 1.51701,10.29967 -1.29631,15.19693c-0.94029,1.63681 -5.9586,4.73829 -7.84312,4.84731c-1.56956,0.0908 -3.13354,-0.27011 -4.70397,-0.34419c-0.55564,-0.02621 -1.64543,-0.77998 -1.65371,-0.22378c-0.25998,17.462 1.69004,37.8681 -2.54862,55.45027c-0.77617,3.2196 -2.21559,10.50444 -4.59805,13.53156c-6.36354,8.08544 -15.99714,8.08544 -22.36068,0c-3.49348,-4.43877 -4.91801,-22.14913 -4.9657,-22.4996c-1.08235,-7.95331 -1.21684,-15.26006 -2.08626,-23.26537c-0.48989,-4.51076 -1.30164,-7.19385 -1.06588,-11.90857c0.7477,-14.95279 7.61919,-34.14334 3.47366,-48.81735c-0.24465,-0.866 -1.73454,0.50929 -2.62769,0.61931c-1.41242,0.17398 -2.84358,0.15518 -4.25761,0.31551c-6.63936,0.7528 -13.68172,2.99421 -20.27788,4.65447c-4.70601,1.1845 -6.84325,2.69324 -11.14901,4.8788c-13.02537,6.61156 -32.84509,18.634 -46.59826,21.22862c-7.15272,1.3494 -19.08249,3.32099 -23.43864,-4.30227c-3.55958,-6.22926 -2.29868,-14.64662 4.29688,-18.16406c4.61908,-2.46337 13.58166,-3.85022 18.80443,-6.54203c8.79645,-4.53366 14.90499,-13.31064 22.87905,-18.73699c7.86543,-5.35243 15.70387,-10.21245 23.3688,-15.8583c3.08097,-2.26938 7.87886,-3.25702 10.4542,-5.69516c0.63624,-0.60235 -1.28958,-1.19235 -1.85858,-1.85858c-0.59789,-0.70005 -1.25004,-2.16951 -2.05936,-2.65143c-1.37849,-0.82084 -3.14902,-0.62005 -4.71047,-0.98866c-5.80363,-1.37005 -7.49331,-5.46502 -8.62324,-10.81257c-0.65032,-3.07771 2.28617,-6.31344 2.69408,-9.15001c0.69802,-4.85405 2.66539,-8.53825 7.90783,-10.14228c0.07824,-0.02394 4.88421,-5.59585 5.00049,-5.6976c3.76964,-3.29843 11.71093,-0.49363 15.12012,1.77917z" fill="#ff0000"/><path d="M249.91353,194.8422c-0.18926,1.38791 -1.00953,1.81211 -1.0554,3.17909c-0.28041,8.35551 0.78126,13.09015 -4.4581,19.36802c-1.89665,2.27259 -4.90365,4.57913 -7.98061,4.08827c-14.11208,-2.25127 -13.41864,-10.48733 -14.98921,-21.59086c-0.19804,-1.40006 -2.13561,-1.86956 -3.0506,-2.94761c-0.82453,-0.97147 -1.11376,-3.24567 -1.64154,-4.35647c-0.90141,-1.89716 -3.8589,-4.08287 -5.24306,-5.63148c-0.49091,-0.54923 -2.19185,-3.6249 -2.43332,-3.74854c-1.5248,-0.78074 -2.75301,-0.3015 -4.09197,-0.48527c-7.86028,-1.07882 -19.58515,-1.2366 -25.88615,-6.67837c-4.43181,-3.82748 -4.60086,-11.35703 -1.83075,-16.32165c2.85847,-5.12297 9.47712,-4.83994 14.43819,-5.27344c0.26082,-0.02279 0.94259,-2.42927 0.95263,-2.44211c2.72816,-3.49112 8.26437,-7.48159 12.92727,-6.46363c3.87365,0.84566 7.45509,3.51257 11.0945,5.09315c0.90421,0.39269 1.854,0.61722 2.76542,0.93861c0.68382,0.24113 1.86696,1.56977 1.99938,0.85688c1.52646,-8.21737 -2.95791,-17.35308 5.27344,-23.22249c1.04813,-0.74738 2.49608,-0.63457 3.72815,-1.00761c9.80775,-2.96955 14.61236,5.31665 20.38495,11.80711c0.78224,0.87952 3.48576,4.04343 4.28191,5.35815c0.1486,0.24539 2.05329,4.09728 2.09865,4.08445c6.77735,-1.91611 13.16331,-7.07261 20.3245,-3.39453c1.04561,0.53704 1.51418,1.80221 2.34536,2.63339c6.97931,6.97931 3.85138,13.08024 -0.95254,19.68726c-0.41312,0.56819 1.16787,0.78397 1.78143,1.12608c0.90386,0.50398 1.83197,0.96341 2.73937,1.461c2.29915,1.26077 4.67345,2.04475 6.4989,4.09438c3.69839,4.15258 4.16751,10.75364 1.09356,15.38751c-7.64759,11.52846 -29.15098,5.26156 -39.62323,4.21434z" fill="#ffa100"/></g></g></svg>