<svg xmlns="http://www.w3.org/2000/svg" viewBox="0 0 113.32 154.14">
  <g stroke-miterlimit="10" stroke-width=".5" style="mix-blend-mode:normal;fill:#6da1b5;">
    <path d="M10.96 5.82a11.33 11.33 0 0 1 5.83-1.31 12.75 12.75 0 0 1 5.93 1.29c4.38 1.62 8.64 4.34 12.31 5.78 6.6 2.58 13.57 4.43 20.2 6.76 11.68 4.12 22.96 9.07 34.73 12.56 9.6 2.84 27.3 9.13 22.58 22.37C108.7 64 100.57 61.4 92.37 65.34c-15.93 7.67-31.6 16.45-48.39 21.84-3.58 1.15-7.36 5.97-10.31 8.15-4.01 2.95-13.81 4.63-17.72 1.43-4.5-3.67-7.17-7.55-7.17-13.6 0-2.12 1.33-4.21 1.34-6.33.04-8.17-.08-16.37-.08-24.44 0-2.26.54-4.8.03-7.06-1.38-6.16-3.83-11.8-5.06-17.98-.28-1.4.89-4.02.9-4.92a12.4 12.4 0 0 1-.95-2.72 2.86 2.86 0 0 1-.27-1.9c-.02-.27-.02-.54-.02-.8 0-3.7 1.6-7.01 4.14-9.3a6.58 6.58 0 0 1 2.15-1.89z"/>
    <path d="M.93 7.48c3.11-7.12 9.3-8.56 14.7-6.8a12.6 12.6 0 0 1 7.2 5c.68.87 1.25 1.8 1.7 2.8 4.12 9.21 2.98 20.26 3.46 30.1.25 5.22 1.24 10.58 1.26 15.77.07 21.4-1.15 42.9.84 64.2 1.03 11.14 5.4 35.59-11.67 35.59C2.2 154.14 6 133.8 5.51 123.17c-.14-3.04-1.25-6.19-1.26-9.23-.18-29.06.95-48.15-1.2-73.39-.56-6.71.27-14.35-1.07-21.07l-.04-.07a12.44 12.44 0 0 1-1.89-6.78C-.1 11.03.1 9.4.93 7.48z"/>
  </g>
</svg>
