<svg xmlns="http://www.w3.org/2000/svg" viewBox="0 0 191.41 168.14">
  <g stroke-miterlimit="10" stroke-width=".5" style="mix-blend-mode:normal;fill:#a3504b;">
    <path d="M35.67 4.76c2.33-.1 4.51-3.34 6.9-3.94 8.47-2.12 14.4.28 22.11 2.48 3.48 1 5.57.63 7.83 4.6 3.48 6.08 2.4 14.81-4.3 18.16-4.49 2.24-6.6 1.82-10.64.86-.17-.04-6.76-2.02-6.83-1.98-2.38 1.57-4.55 2.84-7.3 3.5-1 .24-2.24-.02-2.98.67-3.57 3.34-7.7 6.55-13 5.55C21 33.44 11.88 21.83 13.54 15.12a12.5 12.5 0 0 1 19.13-10.6c.97.19 1.95.29 2.99.24zm30.55 80.89c-1.62 4.3-7.4 7.38-7.62 12.41-.14 3.08 2.23 6.7 2.47 9.8.46 6-1.35 11.28-1.08 17.42.1 2.05 1.69 5.18 2.15 7.24.86 3.88.76 16.56-.1 22.18-1.71 11-15.12 15.45-24.55 10.74-6.75-3.37-7.7-12.03-4.3-18.16.85-1.52 3.4-1.76 3.95-3.4.88-2.66.09-5.6 0-8.4-.08-2.5-2.05-5.06-2.15-7.78-.14-3.93-.14-7.87 0-11.8.08-2.06 1.16-4.16 1.08-6.24-.27-6.47-4.07-11.6-2.34-18.51 1.23-4.93 6.58-11.34 8.77-16.16.3-.67-.03-1.87-.29-2.89-2.22.43-4.45.15-6.7.55-1.38.25-2 2-3.21 2.73-3.55 2.13-8.93 1.9-12.88.92-2.73-.68-6.8-1.62-10.53-3.15a12.45 12.45 0 0 1-3.29-1.6C1.9 69.4-.7 66.38.17 62.03l-.02-.8c0-3.7 1.6-7.01 4.14-9.3a6.58 6.58 0 0 1 2.16-1.89 10.7 10.7 0 0 1 5.45-1.3 12.7 12.7 0 0 1 6.56 1.42c1.12.36 2.12 1.32 3.3 1.24 1.79-.12 4.24-2.67 6.23-3.1 2.83-.63 6.02-.62 8.85-.65 1.9-.02 4.69-2.04 6.55-2.3 6.64-.97 12.4 1.17 19.02 1.23 1.5.01 3.01.15 4.5 0 1.26-.12 1.6-1.97 2.54-2.8 1.97-1.76 6.32-2.68 8.74-2.2 9.2 1.87 13.9 12.72 9.73 21.07-2.1 4.2-11.1 7.78-15.97 9-1.58.4-3.17.56-4.76.57.37 4.53.7 8.98-.97 13.43z"/>
    <path d="M22.02 95.17a11.83 11.83 0 0 1 4.95 7.72 12.54 12.54 0 0 1 .3 3.64c-.07 5.53-2.1 11.57-2.66 16.53-.66 5.95 4.64 7.7.83 15.13-2.08 4.04-8.55 7.44-12.93 6.46-3.74-.83-8.75-3.9-10.88-6.75-1.76-2.34-1.58-5.72-1.5-8.64.24-7.81-.27-17.73 2.3-25.4a12.5 12.5 0 0 1 16.81-9.83c1 .23 1.95.55 2.78 1.14zm50.37-7.07c12.37-6.59 22.12 7.42 23.06 18 .27 3-2.34 5.6-2.51 8.03-.43 6.21 3.9 10.48.34 17.14-4.5 8.4-17.35 8.27-21.88 0-.93-1.7-1.06-4.37-1.56-6.38-.58-2.33-2.22-4.19-2.85-6.7-.7-2.78 2.37-9.4 1.85-11.08a12.47 12.47 0 0 1-2.14-3.93 4.66 4.66 0 0 1-.59-3.09l-.02-.8c0-3.7 1.6-7 4.14-9.3a6.58 6.58 0 0 1 2.16-1.88zm25.19-70.22a6.48 6.48 0 0 1 2.03-.61c1.04-.37 2.14-.6 3.29-.68l.22-.1c7.06-3.5 14.63-4.83 22.48-4.83 3.53 0 6.38 1.84 9.93 1.68 4.26-.19 8.64-2.76 13.12-2.76 4.34 0 19.72 3.91 23.49 5.07 2.03.62 3.42 2.53 4.91 4.04.85.86 1.72 3.69 2 4.7.6 2.26 4.4 4.47 5.48 8.82 2.02 8.06-1.18 15.04-1.23 22.56-.04 4.62.4 10.6 1.6 15.11.27.97 3.66 2.83 4.34 4.47a32.32 32.32 0 0 1 2.17 11.44c0 5.97-4.35 10.02-5.43 15.45a39.7 39.7 0 0 0 .04 14.4c1.6 7.7 1.88 15.86 2.1 23.74.16 5.86 3.34 8.53.05 14.48-1.26 2.27-10.4 11.74-10.71 11.9-9.58 4.79-18.7-3.69-18.7-12.95 0-3.38 1.74-8.77 4.37-11.08 2.01-1.77.15-5.38-.01-8.06-.34-5.83-1.54-11.85-2.14-17.7-.73-7.02-.7-14.12.64-21.1.33-1.75 3.86-8.13 3.62-8.59-.9-1.69-2.9-3.05-3.77-4.8-2.58-5.15-1.9-13.68-3.17-19.65-1.41-6.55 2.15-12.33 1.07-18.72-.15-.87-2.01-2.51-2.3-3.45-.23-.78.36-1.8-.16-2.44-1.1-1.35-3.41-.77-5.1-1.2-6.04-1.5-8.42-.1-14.79 1.32-5.29 1.18-10.27-2.32-14.59-1.6-6.2 1.02-11.54 5.02-16.88 5.43-5.78.45-15.6-5.59-14.24-12.3l-.03-.81c0-3.7 1.6-7 4.14-9.3a6.58 6.58 0 0 1 2.16-1.88z"/>
    <path d="M119.95 57.2c.97.05 2.3-1.51 3.44-1.8 5.27-1.31 12.95-2.63 17.64 1.17 6.84 5.54 9.76 17.73.1 22.56-5.5 2.75-5.81 1.46-10.4.8-2.58-.38-6.58 2.45-9.42 2.45-7.83 0-18.71-3.3-22.12-11.33a11.3 11.3 0 0 1-.8-3.15 12.6 12.6 0 0 1 1.09-7.26c1.52-3.62 4.48-6.52 8.56-6.8a12.54 12.54 0 0 1 11.5 3.33l.4.04zm-15.73 77.83a34.93 34.93 0 0 1-5.81-8.93c-1.29-3.26-1.15-6.86-1.2-7.96-.12-2.92.58-5.93.75-6.66.49-2.01 2.51-6.68 2.51-6.68s.92-2.85 3.06-5.37a38.92 38.92 0 0 1 7.57-6.64c1.76-.87 6.59-2.4 6.59-2.4s8.3-1.46 12.1-1.37c1.47.04 6.24.65 9.4 1.7 1.87.62 5.85 3.38 8.4 5.92 1.18 1.17 4.05 6.29 5.25 10.85.8 3.08.93 8.52.06 12.88-.19.94-2.04 5.32-4.48 9.05a56.8 56.8 0 0 1-9.1 9.86c-1.22.99-6.07 3.56-11.16 4.74-5.16 1.19-8.53.74-10.8.09-2.4-.7-3.06-.39-4.72-1.85-.67-.6-2.43-3.57-2.43-3.57s-4.7-2.32-6-3.66zm24.3-20.77-2.9.18-1.78.34-.03.02-.4.26-.46.87-.09.23-.2 1.16.4.26 1.71.8.35.29.06.02 1-.88.82-.75.86-1.14.34-.75.11-.13.04-.17.3-.61z"/>
  </g>
</svg>
