<svg version="1.1" xmlns="http://www.w3.org/2000/svg" xmlns:xlink="http://www.w3.org/1999/xlink" width="202.67998" height="202.81465" viewBox="0,0,202.67998,202.81465"><g transform="translate(-138.60056,-78.50845)"><g data-paper-data="{&quot;isPaintingLayer&quot;:true}" fill-rule="nonzero" stroke-width="0" stroke-linecap="butt" stroke-linejoin="miter" stroke-miterlimit="10" stroke-dasharray="" stroke-dashoffset="0" style="mix-blend-mode: normal"><path d="M206.35058,145.91578c0,-37.22803 30.17929,-67.40733 67.40732,-67.40733c37.22803,0 67.4073,30.1793 67.4073,67.40733c0,37.22803 -30.17927,67.40732 -67.4073,67.40732c-37.22803,0 -67.40732,-30.17929 -67.40732,-67.40732z" fill="#4e7682" stroke="#000000"/><path d="M138.60056,145.91578c0,-37.22803 30.17929,-67.40733 67.40732,-67.40733c37.22803,0 67.4073,30.1793 67.4073,67.40733c0,37.22803 -30.17927,67.40732 -67.4073,67.40732c-37.22803,0 -67.40732,-30.17929 -67.40732,-67.40732z" fill="#20444f" stroke="#000000"/><path d="M138.60056,213.66578c0,-37.22803 30.17929,-67.40733 67.40732,-67.40733c37.22803,0 67.4073,30.1793 67.4073,67.40733c0,37.22803 -30.17927,67.40732 -67.4073,67.40732c-37.22803,0 -67.40732,-30.17929 -67.40732,-67.40732z" fill="#4e7682" stroke="#000000"/><path d="M206.35058,213.91578c0,-37.22803 30.17929,-67.40733 67.40732,-67.40733c37.22803,0 67.4073,30.1793 67.4073,67.40733c0,37.22803 -30.17927,67.40732 -67.4073,67.40732c-37.22803,0 -67.40732,-30.17929 -67.40732,-67.40732z" fill="#4e7682" stroke="#000000"/><path d="M206.23983,281.28054v-67.52036h67.52036v67.52036z" fill="#8daeb8" stroke="none"/><path d="M206.23983,213.76017v-67.52036h67.52036v67.52036z" fill="#4e7682" stroke="none"/><path d="M273.76018,213.76017v-67.52036h67.52036v67.52036z" fill="#8daeb8" stroke="none"/><path d="M138.63982,213.76017v-67.52036h67.52036v67.52036z" fill="#20444f" stroke="none"/><path d="M206.23983,146.16018v-67.52036h67.52036v67.52036z" fill="#20444f" stroke="none"/></g></g></svg>